<mxfile host="app.diagrams.net" agent="Mozilla/5.0 (Windows NT 10.0; Win64; x64) AppleWebKit/537.36 (KHTML, like Gecko) Chrome/132.0.0.0 Safari/537.36" version="26.0.14">
  <diagram name="第 1 页" id="i8XOcRYiCNzHV1Cfkk7H">
    <mxGraphModel dx="2353" dy="2075" grid="1" gridSize="10" guides="1" tooltips="1" connect="1" arrows="1" fold="1" page="1" pageScale="1" pageWidth="827" pageHeight="1169" math="0" shadow="0">
      <root>
        <mxCell id="0" />
        <mxCell id="1" parent="0" />
        <mxCell id="PZnoFgIiRui3hvkY3LLT-238" value="" style="whiteSpace=wrap;html=1;aspect=fixed;glass=0;fillColor=none;" vertex="1" parent="1">
          <mxGeometry x="320" y="-960" width="320" height="320" as="geometry" />
        </mxCell>
        <mxCell id="PZnoFgIiRui3hvkY3LLT-70" value="" style="whiteSpace=wrap;html=1;aspect=fixed;glass=0;" vertex="1" parent="1">
          <mxGeometry x="2210" y="680" width="320" height="320" as="geometry" />
        </mxCell>
        <mxCell id="PZnoFgIiRui3hvkY3LLT-3" value="" style="whiteSpace=wrap;html=1;aspect=fixed;glass=0;" vertex="1" parent="1">
          <mxGeometry x="840" y="40" width="320" height="320" as="geometry" />
        </mxCell>
        <mxCell id="OZfzm9xs_ot9Pj_BeB6e-1" value="L铁矿 MK2 240pmin" style="rounded=0;whiteSpace=wrap;html=1;fillColor=#f5f5f5;fontColor=#333333;strokeColor=#666666;" parent="1" vertex="1">
          <mxGeometry y="400" width="140" height="80" as="geometry" />
        </mxCell>
        <mxCell id="OZfzm9xs_ot9Pj_BeB6e-10" value="构筑 铁板30-20" style="rounded=0;whiteSpace=wrap;html=1;fillColor=#d5e8d4;strokeColor=#82b366;" parent="1" vertex="1">
          <mxGeometry x="300" y="360" width="100" height="80" as="geometry" />
        </mxCell>
        <mxCell id="OZfzm9xs_ot9Pj_BeB6e-11" value="构筑 铁棍15-15" style="rounded=0;whiteSpace=wrap;html=1;fillColor=#d5e8d4;strokeColor=#82b366;" parent="1" vertex="1">
          <mxGeometry x="370" y="-10" width="100" height="80" as="geometry" />
        </mxCell>
        <mxCell id="OZfzm9xs_ot9Pj_BeB6e-12" value="构筑 铁钉&amp;nbsp;&lt;div&gt;12.5-50&lt;/div&gt;" style="rounded=0;whiteSpace=wrap;html=1;fillColor=#d5e8d4;strokeColor=#82b366;" parent="1" vertex="1">
          <mxGeometry x="370" y="-200" width="100" height="80" as="geometry" />
        </mxCell>
        <mxCell id="OZfzm9xs_ot9Pj_BeB6e-14" value="冶炼 铁锭&lt;div&gt;30-30&lt;/div&gt;" style="rounded=0;whiteSpace=wrap;html=1;fillColor=#f8cecc;strokeColor=#b85450;" parent="1" vertex="1">
          <mxGeometry x="210" y="-90" width="90" height="60" as="geometry" />
        </mxCell>
        <mxCell id="OZfzm9xs_ot9Pj_BeB6e-15" value="构筑 钢管 30-20" style="rounded=0;whiteSpace=wrap;html=1;fillColor=#d5e8d4;strokeColor=#82b366;" parent="1" vertex="1">
          <mxGeometry x="480" y="-10" width="100" height="80" as="geometry" />
        </mxCell>
        <mxCell id="OZfzm9xs_ot9Pj_BeB6e-16" value="构筑 钢梁 60-15" style="rounded=0;whiteSpace=wrap;html=1;fillColor=#d5e8d4;strokeColor=#82b366;" parent="1" vertex="1">
          <mxGeometry x="480" y="-110" width="100" height="80" as="geometry" />
        </mxCell>
        <mxCell id="OZfzm9xs_ot9Pj_BeB6e-17" value="装配 钢混梁&lt;div&gt;18钢梁-36混凝土-6&lt;/div&gt;" style="rounded=0;whiteSpace=wrap;html=1;fillColor=#dae8fc;strokeColor=#6c8ebf;" parent="1" vertex="1">
          <mxGeometry x="210" y="-200" width="150" height="100" as="geometry" />
        </mxCell>
        <mxCell id="OZfzm9xs_ot9Pj_BeB6e-18" value="装配 铁框&lt;div&gt;12棍-3强板-2&lt;/div&gt;" style="rounded=0;whiteSpace=wrap;html=1;fillColor=#dae8fc;strokeColor=#6c8ebf;" parent="1" vertex="1">
          <mxGeometry x="-160" y="-200" width="150" height="100" as="geometry" />
        </mxCell>
        <mxCell id="OZfzm9xs_ot9Pj_BeB6e-19" value="装配 智能嵌板&lt;div&gt;2强板-2转子-2&lt;/div&gt;" style="rounded=0;whiteSpace=wrap;html=1;fillColor=#dae8fc;strokeColor=#6c8ebf;" parent="1" vertex="1">
          <mxGeometry x="-160" y="-90" width="150" height="100" as="geometry" />
        </mxCell>
        <mxCell id="OZfzm9xs_ot9Pj_BeB6e-20" value="装配 转子&lt;div&gt;20棍-100钉-4&lt;/div&gt;" style="rounded=0;whiteSpace=wrap;html=1;fillColor=#dae8fc;strokeColor=#6c8ebf;" parent="1" vertex="1">
          <mxGeometry x="40" y="-90" width="150" height="100" as="geometry" />
        </mxCell>
        <mxCell id="OZfzm9xs_ot9Pj_BeB6e-21" value="装配 强板&lt;div&gt;30板-60钉-5&lt;/div&gt;" style="rounded=0;whiteSpace=wrap;html=1;fillColor=#dae8fc;strokeColor=#6c8ebf;" parent="1" vertex="1">
          <mxGeometry x="40" y="-200" width="150" height="100" as="geometry" />
        </mxCell>
        <mxCell id="OZfzm9xs_ot9Pj_BeB6e-49" value="M煤矿 MK2 120pmin" style="rounded=0;whiteSpace=wrap;html=1;fillColor=#f5f5f5;fontColor=#333333;strokeColor=#666666;" parent="1" vertex="1">
          <mxGeometry x="-90" y="130" width="120" height="60" as="geometry" />
        </mxCell>
        <mxCell id="OZfzm9xs_ot9Pj_BeB6e-51" value="&lt;div&gt;1200/3600 mW&lt;/div&gt;电力：左下 3纯煤&lt;div&gt;MK2 3*240=720=15*48&lt;/div&gt;&lt;div&gt;需18抽水机 3供给8&lt;/div&gt;&lt;div&gt;总电能约75*48 = 3600mW&lt;/div&gt;&lt;div&gt;需3MK2 18抽水 48发电（&lt;/div&gt;&lt;div&gt;每个MK2 对应16发电 6抽水&lt;/div&gt;&lt;div&gt;&lt;br&gt;&lt;/div&gt;" style="whiteSpace=wrap;html=1;aspect=fixed;" parent="1" vertex="1">
          <mxGeometry x="-400" y="75" width="200" height="200" as="geometry" />
        </mxCell>
        <mxCell id="OZfzm9xs_ot9Pj_BeB6e-54" value="M煤矿 MK2 120pmin" style="rounded=0;whiteSpace=wrap;html=1;fillColor=#f5f5f5;fontColor=#333333;strokeColor=#666666;" parent="1" vertex="1">
          <mxGeometry x="-120" y="300" width="120" height="60" as="geometry" />
        </mxCell>
        <mxCell id="OZfzm9xs_ot9Pj_BeB6e-120" value="铸造 钢锭&lt;div&gt;&lt;span style=&quot;background-color: transparent; color: light-dark(rgb(0, 0, 0), rgb(255, 255, 255));&quot;&gt;45,45-45&lt;/span&gt;&lt;/div&gt;" style="rounded=0;whiteSpace=wrap;html=1;fillColor=#f8cecc;strokeColor=#b85450;" parent="1" vertex="1">
          <mxGeometry x="210" width="90" height="80" as="geometry" />
        </mxCell>
        <mxCell id="OZfzm9xs_ot9Pj_BeB6e-121" value="存储 铁板&lt;div&gt;100-90&lt;/div&gt;" style="rounded=0;whiteSpace=wrap;html=1;" parent="1" vertex="1">
          <mxGeometry x="440" y="305" width="100" height="50" as="geometry" />
        </mxCell>
        <mxCell id="OZfzm9xs_ot9Pj_BeB6e-123" value="冶炼 铁锭&lt;div&gt;30-30&lt;/div&gt;" style="rounded=0;whiteSpace=wrap;html=1;fillColor=#f8cecc;strokeColor=#b85450;" parent="1" vertex="1">
          <mxGeometry x="870" y="70" width="90" height="60" as="geometry" />
        </mxCell>
        <mxCell id="OZfzm9xs_ot9Pj_BeB6e-124" value="冶炼 铁锭&lt;div&gt;30-30&lt;/div&gt;" style="rounded=0;whiteSpace=wrap;html=1;fillColor=#f8cecc;strokeColor=#b85450;" parent="1" vertex="1">
          <mxGeometry x="870" y="130" width="90" height="60" as="geometry" />
        </mxCell>
        <mxCell id="OZfzm9xs_ot9Pj_BeB6e-125" value="冶炼 铁锭&lt;div&gt;30-30&lt;/div&gt;" style="rounded=0;whiteSpace=wrap;html=1;fillColor=#f8cecc;strokeColor=#b85450;" parent="1" vertex="1">
          <mxGeometry x="870" y="190" width="90" height="60" as="geometry" />
        </mxCell>
        <mxCell id="OZfzm9xs_ot9Pj_BeB6e-126" value="冶炼 铁锭&lt;div&gt;30-30&lt;/div&gt;" style="rounded=0;whiteSpace=wrap;html=1;fillColor=#f8cecc;strokeColor=#b85450;" parent="1" vertex="1">
          <mxGeometry x="870" y="250" width="90" height="60" as="geometry" />
        </mxCell>
        <mxCell id="OZfzm9xs_ot9Pj_BeB6e-127" value="冶炼 铁锭&lt;div&gt;30-30&lt;/div&gt;" style="rounded=0;whiteSpace=wrap;html=1;fillColor=#f8cecc;strokeColor=#b85450;" parent="1" vertex="1">
          <mxGeometry x="1000" y="70" width="90" height="60" as="geometry" />
        </mxCell>
        <mxCell id="OZfzm9xs_ot9Pj_BeB6e-128" value="冶炼 铁锭&lt;div&gt;30-30&lt;/div&gt;" style="rounded=0;whiteSpace=wrap;html=1;fillColor=#f8cecc;strokeColor=#b85450;" parent="1" vertex="1">
          <mxGeometry x="1000" y="130" width="90" height="60" as="geometry" />
        </mxCell>
        <mxCell id="OZfzm9xs_ot9Pj_BeB6e-129" value="冶炼 铁锭&lt;div&gt;30-30&lt;/div&gt;" style="rounded=0;whiteSpace=wrap;html=1;fillColor=#f8cecc;strokeColor=#b85450;" parent="1" vertex="1">
          <mxGeometry x="1000" y="190" width="90" height="60" as="geometry" />
        </mxCell>
        <mxCell id="OZfzm9xs_ot9Pj_BeB6e-130" value="冶炼 铁锭&lt;div&gt;30-30&lt;/div&gt;" style="rounded=0;whiteSpace=wrap;html=1;fillColor=#f8cecc;strokeColor=#b85450;" parent="1" vertex="1">
          <mxGeometry x="1000" y="250" width="90" height="60" as="geometry" />
        </mxCell>
        <mxCell id="OZfzm9xs_ot9Pj_BeB6e-131" value="构筑 铁板30-20" style="rounded=0;whiteSpace=wrap;html=1;fillColor=#d5e8d4;strokeColor=#82b366;" parent="1" vertex="1">
          <mxGeometry x="300" y="160" width="100" height="80" as="geometry" />
        </mxCell>
        <mxCell id="OZfzm9xs_ot9Pj_BeB6e-132" value="构筑 铁板30-20" style="rounded=0;whiteSpace=wrap;html=1;fillColor=#d5e8d4;strokeColor=#82b366;" parent="1" vertex="1">
          <mxGeometry x="300" y="220" width="100" height="80" as="geometry" />
        </mxCell>
        <mxCell id="OZfzm9xs_ot9Pj_BeB6e-133" value="构筑 铁板30-20" style="rounded=0;whiteSpace=wrap;html=1;fillColor=#d5e8d4;strokeColor=#82b366;" parent="1" vertex="1">
          <mxGeometry x="300" y="290" width="100" height="80" as="geometry" />
        </mxCell>
        <mxCell id="OZfzm9xs_ot9Pj_BeB6e-134" value="构筑 铁板30-20" style="rounded=0;whiteSpace=wrap;html=1;fillColor=#d5e8d4;strokeColor=#82b366;" parent="1" vertex="1">
          <mxGeometry x="370" y="-100" width="100" height="80" as="geometry" />
        </mxCell>
        <mxCell id="OZfzm9xs_ot9Pj_BeB6e-135" value="构筑 铁板30-20" style="rounded=0;whiteSpace=wrap;html=1;fillColor=#d5e8d4;strokeColor=#82b366;" parent="1" vertex="1">
          <mxGeometry x="300" y="430" width="100" height="80" as="geometry" />
        </mxCell>
        <mxCell id="OZfzm9xs_ot9Pj_BeB6e-136" value="装配 强板&lt;div&gt;30板-60钉-5&lt;/div&gt;" style="rounded=0;whiteSpace=wrap;html=1;fillColor=#dae8fc;strokeColor=#6c8ebf;" parent="1" vertex="1">
          <mxGeometry x="730" y="-200" width="150" height="100" as="geometry" />
        </mxCell>
        <mxCell id="OZfzm9xs_ot9Pj_BeB6e-137" value="装配 强板&lt;div&gt;30板-60钉-5&lt;/div&gt;" style="rounded=0;whiteSpace=wrap;html=1;fillColor=#dae8fc;strokeColor=#6c8ebf;" parent="1" vertex="1">
          <mxGeometry x="730" y="-155" width="150" height="100" as="geometry" />
        </mxCell>
        <mxCell id="OZfzm9xs_ot9Pj_BeB6e-138" value="装配 强板&lt;div&gt;30板-60钉-5&lt;/div&gt;" style="rounded=0;whiteSpace=wrap;html=1;fillColor=#dae8fc;strokeColor=#6c8ebf;" parent="1" vertex="1">
          <mxGeometry x="600" y="400" width="150" height="100" as="geometry" />
        </mxCell>
        <mxCell id="OZfzm9xs_ot9Pj_BeB6e-139" value="构筑集群&amp;nbsp;&lt;div&gt;铁板150-100&lt;/div&gt;" style="text;html=1;align=center;verticalAlign=middle;whiteSpace=wrap;rounded=0;" parent="1" vertex="1">
          <mxGeometry x="290" y="110" width="120" height="60" as="geometry" />
        </mxCell>
        <mxCell id="OZfzm9xs_ot9Pj_BeB6e-140" value="5 装配集群&amp;nbsp;&lt;div&gt;90板-180钉-15强板&lt;/div&gt;" style="text;html=1;align=center;verticalAlign=middle;whiteSpace=wrap;rounded=0;" parent="1" vertex="1">
          <mxGeometry x="615" y="110" width="120" height="60" as="geometry" />
        </mxCell>
        <mxCell id="OZfzm9xs_ot9Pj_BeB6e-142" value="L铁矿 MK2 240pmin" style="rounded=0;whiteSpace=wrap;html=1;fillColor=#f5f5f5;fontColor=#333333;strokeColor=#666666;" parent="1" vertex="1">
          <mxGeometry y="960" width="140" height="80" as="geometry" />
        </mxCell>
        <mxCell id="OZfzm9xs_ot9Pj_BeB6e-143" value="冶炼 铁锭&lt;div&gt;30-30&lt;/div&gt;" style="rounded=0;whiteSpace=wrap;html=1;fillColor=#f8cecc;strokeColor=#b85450;" parent="1" vertex="1">
          <mxGeometry x="140" y="720" width="90" height="60" as="geometry" />
        </mxCell>
        <mxCell id="OZfzm9xs_ot9Pj_BeB6e-144" value="冶炼 铁锭&lt;div&gt;30-30&lt;/div&gt;" style="rounded=0;whiteSpace=wrap;html=1;fillColor=#f8cecc;strokeColor=#b85450;" parent="1" vertex="1">
          <mxGeometry x="160" y="790" width="90" height="60" as="geometry" />
        </mxCell>
        <mxCell id="OZfzm9xs_ot9Pj_BeB6e-145" value="冶炼 铁锭&lt;div&gt;30-30&lt;/div&gt;" style="rounded=0;whiteSpace=wrap;html=1;fillColor=#f8cecc;strokeColor=#b85450;" parent="1" vertex="1">
          <mxGeometry x="160" y="860" width="90" height="60" as="geometry" />
        </mxCell>
        <mxCell id="OZfzm9xs_ot9Pj_BeB6e-146" value="冶炼 铁锭&lt;div&gt;30-30&lt;/div&gt;" style="rounded=0;whiteSpace=wrap;html=1;fillColor=#f8cecc;strokeColor=#b85450;" parent="1" vertex="1">
          <mxGeometry x="160" y="930" width="90" height="60" as="geometry" />
        </mxCell>
        <mxCell id="OZfzm9xs_ot9Pj_BeB6e-147" value="冶炼 铁锭&lt;div&gt;30-30&lt;/div&gt;" style="rounded=0;whiteSpace=wrap;html=1;fillColor=#f8cecc;strokeColor=#b85450;" parent="1" vertex="1">
          <mxGeometry x="160" y="1000" width="90" height="60" as="geometry" />
        </mxCell>
        <mxCell id="OZfzm9xs_ot9Pj_BeB6e-148" value="冶炼 铁锭&lt;div&gt;30-30&lt;/div&gt;" style="rounded=0;whiteSpace=wrap;html=1;fillColor=#f8cecc;strokeColor=#b85450;" parent="1" vertex="1">
          <mxGeometry x="160" y="1070" width="90" height="60" as="geometry" />
        </mxCell>
        <mxCell id="OZfzm9xs_ot9Pj_BeB6e-149" value="冶炼 铁锭&lt;div&gt;30-30&lt;/div&gt;" style="rounded=0;whiteSpace=wrap;html=1;fillColor=#f8cecc;strokeColor=#b85450;" parent="1" vertex="1">
          <mxGeometry x="160" y="1140" width="90" height="60" as="geometry" />
        </mxCell>
        <mxCell id="OZfzm9xs_ot9Pj_BeB6e-150" value="冶炼 铁锭&lt;div&gt;30-30&lt;/div&gt;" style="rounded=0;whiteSpace=wrap;html=1;fillColor=#f8cecc;strokeColor=#b85450;" parent="1" vertex="1">
          <mxGeometry x="160" y="1210" width="90" height="60" as="geometry" />
        </mxCell>
        <mxCell id="OZfzm9xs_ot9Pj_BeB6e-162" value="构筑 铁棍15-15" style="rounded=0;whiteSpace=wrap;html=1;fillColor=#d5e8d4;strokeColor=#82b366;" parent="1" vertex="1">
          <mxGeometry x="307.5" y="840" width="100" height="80" as="geometry" />
        </mxCell>
        <mxCell id="OZfzm9xs_ot9Pj_BeB6e-163" value="构筑 铁棍15-15" style="rounded=0;whiteSpace=wrap;html=1;fillColor=#d5e8d4;strokeColor=#82b366;" parent="1" vertex="1">
          <mxGeometry x="317.5" y="850" width="100" height="80" as="geometry" />
        </mxCell>
        <mxCell id="OZfzm9xs_ot9Pj_BeB6e-164" value="构筑 铁棍15-15" style="rounded=0;whiteSpace=wrap;html=1;fillColor=#d5e8d4;strokeColor=#82b366;" parent="1" vertex="1">
          <mxGeometry x="327.5" y="860" width="100" height="80" as="geometry" />
        </mxCell>
        <mxCell id="OZfzm9xs_ot9Pj_BeB6e-165" value="构筑 铁棍15-15" style="rounded=0;whiteSpace=wrap;html=1;fillColor=#d5e8d4;strokeColor=#82b366;" parent="1" vertex="1">
          <mxGeometry x="337.5" y="870" width="100" height="80" as="geometry" />
        </mxCell>
        <mxCell id="OZfzm9xs_ot9Pj_BeB6e-166" value="构筑 铁棍15-15" style="rounded=0;whiteSpace=wrap;html=1;fillColor=#d5e8d4;strokeColor=#82b366;" parent="1" vertex="1">
          <mxGeometry x="312.5" y="950" width="100" height="80" as="geometry" />
        </mxCell>
        <mxCell id="OZfzm9xs_ot9Pj_BeB6e-167" value="构筑 铁棍15-15" style="rounded=0;whiteSpace=wrap;html=1;fillColor=#d5e8d4;strokeColor=#82b366;" parent="1" vertex="1">
          <mxGeometry x="322.5" y="960" width="100" height="80" as="geometry" />
        </mxCell>
        <mxCell id="OZfzm9xs_ot9Pj_BeB6e-168" value="构筑 铁棍15-15" style="rounded=0;whiteSpace=wrap;html=1;fillColor=#d5e8d4;strokeColor=#82b366;" parent="1" vertex="1">
          <mxGeometry x="332.5" y="970" width="100" height="80" as="geometry" />
        </mxCell>
        <mxCell id="OZfzm9xs_ot9Pj_BeB6e-169" value="构筑 铁棍15-15" style="rounded=0;whiteSpace=wrap;html=1;fillColor=#d5e8d4;strokeColor=#82b366;" parent="1" vertex="1">
          <mxGeometry x="342.5" y="980" width="100" height="80" as="geometry" />
        </mxCell>
        <mxCell id="OZfzm9xs_ot9Pj_BeB6e-229" style="edgeStyle=orthogonalEdgeStyle;rounded=0;orthogonalLoop=1;jettySize=auto;html=1;" parent="1" source="OZfzm9xs_ot9Pj_BeB6e-170" target="OZfzm9xs_ot9Pj_BeB6e-228" edge="1">
          <mxGeometry relative="1" as="geometry" />
        </mxCell>
        <mxCell id="OZfzm9xs_ot9Pj_BeB6e-170" value="构筑集群&lt;div&gt;铁棍 120-120&lt;/div&gt;" style="text;html=1;align=center;verticalAlign=middle;whiteSpace=wrap;rounded=0;" parent="1" vertex="1">
          <mxGeometry x="300" y="790" width="120" height="60" as="geometry" />
        </mxCell>
        <mxCell id="OZfzm9xs_ot9Pj_BeB6e-171" value="装配 转子&lt;div&gt;20棍-100钉-4&lt;/div&gt;" style="rounded=0;whiteSpace=wrap;html=1;fillColor=#dae8fc;strokeColor=#6c8ebf;" parent="1" vertex="1">
          <mxGeometry x="600" y="730" width="150" height="100" as="geometry" />
        </mxCell>
        <mxCell id="OZfzm9xs_ot9Pj_BeB6e-172" value="装配 转子&lt;div&gt;20棍-100钉-4&lt;/div&gt;" style="rounded=0;whiteSpace=wrap;html=1;fillColor=#dae8fc;strokeColor=#6c8ebf;" parent="1" vertex="1">
          <mxGeometry x="600" y="850" width="150" height="100" as="geometry" />
        </mxCell>
        <mxCell id="OZfzm9xs_ot9Pj_BeB6e-173" value="装配 转子&lt;div&gt;20棍-100钉-4&lt;/div&gt;" style="rounded=0;whiteSpace=wrap;html=1;fillColor=#dae8fc;strokeColor=#6c8ebf;" parent="1" vertex="1">
          <mxGeometry x="600" y="970" width="150" height="100" as="geometry" />
        </mxCell>
        <mxCell id="OZfzm9xs_ot9Pj_BeB6e-205" value="构筑 铁钉&amp;nbsp;&lt;div&gt;12.5-50&lt;/div&gt;" style="rounded=0;whiteSpace=wrap;html=1;fillColor=#d5e8d4;strokeColor=#82b366;" parent="1" vertex="1">
          <mxGeometry x="295" y="1120" width="100" height="80" as="geometry" />
        </mxCell>
        <mxCell id="OZfzm9xs_ot9Pj_BeB6e-206" value="构筑 铁钉&amp;nbsp;&lt;div&gt;12.5-50&lt;/div&gt;" style="rounded=0;whiteSpace=wrap;html=1;fillColor=#d5e8d4;strokeColor=#82b366;" parent="1" vertex="1">
          <mxGeometry x="295" y="1130" width="100" height="80" as="geometry" />
        </mxCell>
        <mxCell id="OZfzm9xs_ot9Pj_BeB6e-207" value="构筑 铁钉&amp;nbsp;&lt;div&gt;12.5-50&lt;/div&gt;" style="rounded=0;whiteSpace=wrap;html=1;fillColor=#d5e8d4;strokeColor=#82b366;" parent="1" vertex="1">
          <mxGeometry x="295" y="1140" width="100" height="80" as="geometry" />
        </mxCell>
        <mxCell id="OZfzm9xs_ot9Pj_BeB6e-208" value="构筑 铁钉&amp;nbsp;&lt;div&gt;12.5-50&lt;/div&gt;" style="rounded=0;whiteSpace=wrap;html=1;fillColor=#d5e8d4;strokeColor=#82b366;" parent="1" vertex="1">
          <mxGeometry x="375" y="1120" width="100" height="80" as="geometry" />
        </mxCell>
        <mxCell id="OZfzm9xs_ot9Pj_BeB6e-209" value="构筑 铁钉&amp;nbsp;&lt;div&gt;12.5-50&lt;/div&gt;" style="rounded=0;whiteSpace=wrap;html=1;fillColor=#d5e8d4;strokeColor=#82b366;" parent="1" vertex="1">
          <mxGeometry x="375" y="1130" width="100" height="80" as="geometry" />
        </mxCell>
        <mxCell id="OZfzm9xs_ot9Pj_BeB6e-210" value="构筑 铁钉&amp;nbsp;&lt;div&gt;12.5-50&lt;/div&gt;" style="rounded=0;whiteSpace=wrap;html=1;fillColor=#d5e8d4;strokeColor=#82b366;" parent="1" vertex="1">
          <mxGeometry x="375" y="1140" width="100" height="80" as="geometry" />
        </mxCell>
        <mxCell id="OZfzm9xs_ot9Pj_BeB6e-211" value="构筑 铁钉&amp;nbsp;&lt;div&gt;12.5-50&lt;/div&gt;" style="rounded=0;whiteSpace=wrap;html=1;fillColor=#d5e8d4;strokeColor=#82b366;" parent="1" vertex="1">
          <mxGeometry x="375" y="1150" width="100" height="80" as="geometry" />
        </mxCell>
        <mxCell id="OZfzm9xs_ot9Pj_BeB6e-212" value="构筑 铁钉&amp;nbsp;&lt;div&gt;12.5-50&lt;/div&gt;" style="rounded=0;whiteSpace=wrap;html=1;fillColor=#d5e8d4;strokeColor=#82b366;" parent="1" vertex="1">
          <mxGeometry x="375" y="1160" width="100" height="80" as="geometry" />
        </mxCell>
        <mxCell id="OZfzm9xs_ot9Pj_BeB6e-213" value="构筑 铁钉&amp;nbsp;&lt;div&gt;12.5-50&lt;/div&gt;" style="rounded=0;whiteSpace=wrap;html=1;fillColor=#d5e8d4;strokeColor=#82b366;" parent="1" vertex="1">
          <mxGeometry x="295" y="1150" width="100" height="80" as="geometry" />
        </mxCell>
        <mxCell id="OZfzm9xs_ot9Pj_BeB6e-214" value="构筑 铁钉&amp;nbsp;&lt;div&gt;12.5-50&lt;/div&gt;" style="rounded=0;whiteSpace=wrap;html=1;fillColor=#d5e8d4;strokeColor=#82b366;" parent="1" vertex="1">
          <mxGeometry x="295" y="1160" width="100" height="80" as="geometry" />
        </mxCell>
        <mxCell id="OZfzm9xs_ot9Pj_BeB6e-226" style="edgeStyle=orthogonalEdgeStyle;rounded=0;orthogonalLoop=1;jettySize=auto;html=1;" parent="1" source="OZfzm9xs_ot9Pj_BeB6e-215" edge="1">
          <mxGeometry relative="1" as="geometry">
            <mxPoint x="670" y="1080" as="targetPoint" />
          </mxGeometry>
        </mxCell>
        <mxCell id="OZfzm9xs_ot9Pj_BeB6e-215" value="构筑集群&lt;div&gt;6铁钉 75-300&lt;/div&gt;" style="text;html=1;align=center;verticalAlign=middle;whiteSpace=wrap;rounded=0;" parent="1" vertex="1">
          <mxGeometry x="330" y="1090" width="120" height="30" as="geometry" />
        </mxCell>
        <mxCell id="OZfzm9xs_ot9Pj_BeB6e-216" value="构筑 铁钉&amp;nbsp;&lt;div&gt;12.5-50&lt;/div&gt;" style="rounded=0;whiteSpace=wrap;html=1;fillColor=#d5e8d4;strokeColor=#82b366;" parent="1" vertex="1">
          <mxGeometry x="305" y="1130" width="100" height="80" as="geometry" />
        </mxCell>
        <mxCell id="OZfzm9xs_ot9Pj_BeB6e-217" value="构筑 铁钉&amp;nbsp;&lt;div&gt;12.5-50&lt;/div&gt;" style="rounded=0;whiteSpace=wrap;html=1;fillColor=#d5e8d4;strokeColor=#82b366;" parent="1" vertex="1">
          <mxGeometry x="305" y="1140" width="100" height="80" as="geometry" />
        </mxCell>
        <mxCell id="OZfzm9xs_ot9Pj_BeB6e-218" value="构筑 铁钉&amp;nbsp;&lt;div&gt;12.5-50&lt;/div&gt;" style="rounded=0;whiteSpace=wrap;html=1;fillColor=#d5e8d4;strokeColor=#82b366;" parent="1" vertex="1">
          <mxGeometry x="305" y="1150" width="100" height="80" as="geometry" />
        </mxCell>
        <mxCell id="OZfzm9xs_ot9Pj_BeB6e-219" value="构筑 铁钉&amp;nbsp;&lt;div&gt;12.5-50&lt;/div&gt;" style="rounded=0;whiteSpace=wrap;html=1;fillColor=#d5e8d4;strokeColor=#82b366;" parent="1" vertex="1">
          <mxGeometry x="385" y="1130" width="100" height="80" as="geometry" />
        </mxCell>
        <mxCell id="OZfzm9xs_ot9Pj_BeB6e-220" value="构筑 铁钉&amp;nbsp;&lt;div&gt;12.5-50&lt;/div&gt;" style="rounded=0;whiteSpace=wrap;html=1;fillColor=#d5e8d4;strokeColor=#82b366;" parent="1" vertex="1">
          <mxGeometry x="385" y="1140" width="100" height="80" as="geometry" />
        </mxCell>
        <mxCell id="OZfzm9xs_ot9Pj_BeB6e-221" value="构筑 铁钉&amp;nbsp;&lt;div&gt;12.5-50&lt;/div&gt;" style="rounded=0;whiteSpace=wrap;html=1;fillColor=#d5e8d4;strokeColor=#82b366;" parent="1" vertex="1">
          <mxGeometry x="385" y="1150" width="100" height="80" as="geometry" />
        </mxCell>
        <mxCell id="OZfzm9xs_ot9Pj_BeB6e-222" value="构筑 铁钉&amp;nbsp;&lt;div&gt;12.5-50&lt;/div&gt;" style="rounded=0;whiteSpace=wrap;html=1;fillColor=#d5e8d4;strokeColor=#82b366;" parent="1" vertex="1">
          <mxGeometry x="385" y="1160" width="100" height="80" as="geometry" />
        </mxCell>
        <mxCell id="OZfzm9xs_ot9Pj_BeB6e-223" value="构筑 铁钉&amp;nbsp;&lt;div&gt;12.5-50&lt;/div&gt;" style="rounded=0;whiteSpace=wrap;html=1;fillColor=#d5e8d4;strokeColor=#82b366;" parent="1" vertex="1">
          <mxGeometry x="385" y="1170" width="100" height="80" as="geometry" />
        </mxCell>
        <mxCell id="OZfzm9xs_ot9Pj_BeB6e-224" value="构筑 铁钉&amp;nbsp;&lt;div&gt;12.5-50&lt;/div&gt;" style="rounded=0;whiteSpace=wrap;html=1;fillColor=#d5e8d4;strokeColor=#82b366;" parent="1" vertex="1">
          <mxGeometry x="305" y="1160" width="100" height="80" as="geometry" />
        </mxCell>
        <mxCell id="OZfzm9xs_ot9Pj_BeB6e-225" value="构筑 铁钉&amp;nbsp;&lt;div&gt;12.5-50&lt;/div&gt;" style="rounded=0;whiteSpace=wrap;html=1;fillColor=#d5e8d4;strokeColor=#82b366;" parent="1" vertex="1">
          <mxGeometry x="305" y="1170" width="100" height="80" as="geometry" />
        </mxCell>
        <mxCell id="OZfzm9xs_ot9Pj_BeB6e-227" value="二合一供给" style="text;html=1;align=center;verticalAlign=middle;whiteSpace=wrap;rounded=0;" parent="1" vertex="1">
          <mxGeometry x="520" y="1110" width="120" height="30" as="geometry" />
        </mxCell>
        <mxCell id="OZfzm9xs_ot9Pj_BeB6e-228" value="3装配集群&lt;div&gt;60棍-300钉-12转子&lt;/div&gt;" style="text;html=1;align=center;verticalAlign=middle;whiteSpace=wrap;rounded=0;" parent="1" vertex="1">
          <mxGeometry x="610" y="700" width="120" height="30" as="geometry" />
        </mxCell>
        <mxCell id="OZfzm9xs_ot9Pj_BeB6e-230" value="一分二供给" style="text;html=1;align=center;verticalAlign=middle;whiteSpace=wrap;rounded=0;" parent="1" vertex="1">
          <mxGeometry x="470" y="750" width="120" height="30" as="geometry" />
        </mxCell>
        <mxCell id="OZfzm9xs_ot9Pj_BeB6e-231" value="装配 智能嵌板&lt;div&gt;2强板-2转子-2&lt;/div&gt;" style="rounded=0;whiteSpace=wrap;html=1;fillColor=#dae8fc;strokeColor=#6c8ebf;" parent="1" vertex="1">
          <mxGeometry x="50" y="110" width="150" height="100" as="geometry" />
        </mxCell>
        <mxCell id="OZfzm9xs_ot9Pj_BeB6e-232" value="装配 智能嵌板&lt;div&gt;2强板-2转子-2&lt;/div&gt;" style="rounded=0;whiteSpace=wrap;html=1;fillColor=#dae8fc;strokeColor=#6c8ebf;" parent="1" vertex="1">
          <mxGeometry x="50" y="130" width="150" height="100" as="geometry" />
        </mxCell>
        <mxCell id="OZfzm9xs_ot9Pj_BeB6e-233" value="装配 智能嵌板&lt;div&gt;2强板-2转子-2&lt;/div&gt;" style="rounded=0;whiteSpace=wrap;html=1;fillColor=#dae8fc;strokeColor=#6c8ebf;" parent="1" vertex="1">
          <mxGeometry x="50" y="150" width="150" height="100" as="geometry" />
        </mxCell>
        <mxCell id="OZfzm9xs_ot9Pj_BeB6e-234" value="3装配集群&lt;div&gt;6强板-6转子-6智板&lt;/div&gt;" style="text;html=1;align=center;verticalAlign=middle;whiteSpace=wrap;rounded=0;" parent="1" vertex="1">
          <mxGeometry x="60" y="80" width="120" height="30" as="geometry" />
        </mxCell>
        <mxCell id="OZfzm9xs_ot9Pj_BeB6e-235" value="存储 转子&lt;div&gt;12-6&lt;/div&gt;" style="rounded=0;whiteSpace=wrap;html=1;" parent="1" vertex="1">
          <mxGeometry x="520" y="495" width="100" height="50" as="geometry" />
        </mxCell>
        <mxCell id="OZfzm9xs_ot9Pj_BeB6e-236" value="装配 铁框&lt;div&gt;12棍-3强板-2&lt;/div&gt;" style="rounded=0;whiteSpace=wrap;html=1;fillColor=#dae8fc;strokeColor=#6c8ebf;" parent="1" vertex="1">
          <mxGeometry x="1040" y="-210" width="150" height="100" as="geometry" />
        </mxCell>
        <mxCell id="OZfzm9xs_ot9Pj_BeB6e-237" value="构筑 铁钉&amp;nbsp;&lt;div&gt;12.5-50&lt;/div&gt;" style="rounded=0;whiteSpace=wrap;html=1;fillColor=#d5e8d4;strokeColor=#82b366;" parent="1" vertex="1">
          <mxGeometry x="285" y="570" width="100" height="80" as="geometry" />
        </mxCell>
        <mxCell id="OZfzm9xs_ot9Pj_BeB6e-238" value="构筑 铁钉&amp;nbsp;&lt;div&gt;12.5-50&lt;/div&gt;" style="rounded=0;whiteSpace=wrap;html=1;fillColor=#d5e8d4;strokeColor=#82b366;" parent="1" vertex="1">
          <mxGeometry x="285" y="580" width="100" height="80" as="geometry" />
        </mxCell>
        <mxCell id="OZfzm9xs_ot9Pj_BeB6e-239" value="构筑 铁钉&amp;nbsp;&lt;div&gt;12.5-50&lt;/div&gt;" style="rounded=0;whiteSpace=wrap;html=1;fillColor=#d5e8d4;strokeColor=#82b366;" parent="1" vertex="1">
          <mxGeometry x="285" y="590" width="100" height="80" as="geometry" />
        </mxCell>
        <mxCell id="OZfzm9xs_ot9Pj_BeB6e-240" value="构筑 铁钉&amp;nbsp;&lt;div&gt;12.5-50&lt;/div&gt;" style="rounded=0;whiteSpace=wrap;html=1;fillColor=#d5e8d4;strokeColor=#82b366;" parent="1" vertex="1">
          <mxGeometry x="365" y="570" width="100" height="80" as="geometry" />
        </mxCell>
        <mxCell id="OZfzm9xs_ot9Pj_BeB6e-241" value="构筑 铁钉&amp;nbsp;&lt;div&gt;12.5-50&lt;/div&gt;" style="rounded=0;whiteSpace=wrap;html=1;fillColor=#d5e8d4;strokeColor=#82b366;" parent="1" vertex="1">
          <mxGeometry x="365" y="580" width="100" height="80" as="geometry" />
        </mxCell>
        <mxCell id="OZfzm9xs_ot9Pj_BeB6e-242" value="构筑 铁钉&amp;nbsp;&lt;div&gt;12.5-50&lt;/div&gt;" style="rounded=0;whiteSpace=wrap;html=1;fillColor=#d5e8d4;strokeColor=#82b366;" parent="1" vertex="1">
          <mxGeometry x="365" y="590" width="100" height="80" as="geometry" />
        </mxCell>
        <mxCell id="OZfzm9xs_ot9Pj_BeB6e-243" value="构筑 铁钉&amp;nbsp;&lt;div&gt;12.5-50&lt;/div&gt;" style="rounded=0;whiteSpace=wrap;html=1;fillColor=#d5e8d4;strokeColor=#82b366;" parent="1" vertex="1">
          <mxGeometry x="365" y="600" width="100" height="80" as="geometry" />
        </mxCell>
        <mxCell id="OZfzm9xs_ot9Pj_BeB6e-244" value="构筑 铁钉&amp;nbsp;&lt;div&gt;12.5-50&lt;/div&gt;" style="rounded=0;whiteSpace=wrap;html=1;fillColor=#d5e8d4;strokeColor=#82b366;" parent="1" vertex="1">
          <mxGeometry x="365" y="610" width="100" height="80" as="geometry" />
        </mxCell>
        <mxCell id="OZfzm9xs_ot9Pj_BeB6e-245" value="构筑 铁钉&amp;nbsp;&lt;div&gt;12.5-50&lt;/div&gt;" style="rounded=0;whiteSpace=wrap;html=1;fillColor=#d5e8d4;strokeColor=#82b366;" parent="1" vertex="1">
          <mxGeometry x="285" y="600" width="100" height="80" as="geometry" />
        </mxCell>
        <mxCell id="OZfzm9xs_ot9Pj_BeB6e-246" value="构筑 铁钉&amp;nbsp;&lt;div&gt;12.5-50&lt;/div&gt;" style="rounded=0;whiteSpace=wrap;html=1;fillColor=#d5e8d4;strokeColor=#82b366;" parent="1" vertex="1">
          <mxGeometry x="285" y="610" width="100" height="80" as="geometry" />
        </mxCell>
        <mxCell id="OZfzm9xs_ot9Pj_BeB6e-247" value="构筑集群&lt;div&gt;6铁钉 75-300&lt;/div&gt;" style="text;html=1;align=center;verticalAlign=middle;whiteSpace=wrap;rounded=0;" parent="1" vertex="1">
          <mxGeometry x="320" y="540" width="120" height="30" as="geometry" />
        </mxCell>
        <mxCell id="OZfzm9xs_ot9Pj_BeB6e-248" value="构筑 铁钉&amp;nbsp;&lt;div&gt;12.5-50&lt;/div&gt;" style="rounded=0;whiteSpace=wrap;html=1;fillColor=#d5e8d4;strokeColor=#82b366;" parent="1" vertex="1">
          <mxGeometry x="295" y="580" width="100" height="80" as="geometry" />
        </mxCell>
        <mxCell id="OZfzm9xs_ot9Pj_BeB6e-249" value="构筑 铁钉&amp;nbsp;&lt;div&gt;12.5-50&lt;/div&gt;" style="rounded=0;whiteSpace=wrap;html=1;fillColor=#d5e8d4;strokeColor=#82b366;" parent="1" vertex="1">
          <mxGeometry x="295" y="590" width="100" height="80" as="geometry" />
        </mxCell>
        <mxCell id="OZfzm9xs_ot9Pj_BeB6e-250" value="构筑 铁钉&amp;nbsp;&lt;div&gt;12.5-50&lt;/div&gt;" style="rounded=0;whiteSpace=wrap;html=1;fillColor=#d5e8d4;strokeColor=#82b366;" parent="1" vertex="1">
          <mxGeometry x="295" y="600" width="100" height="80" as="geometry" />
        </mxCell>
        <mxCell id="OZfzm9xs_ot9Pj_BeB6e-251" value="构筑 铁钉&amp;nbsp;&lt;div&gt;12.5-50&lt;/div&gt;" style="rounded=0;whiteSpace=wrap;html=1;fillColor=#d5e8d4;strokeColor=#82b366;" parent="1" vertex="1">
          <mxGeometry x="375" y="580" width="100" height="80" as="geometry" />
        </mxCell>
        <mxCell id="OZfzm9xs_ot9Pj_BeB6e-252" value="构筑 铁钉&amp;nbsp;&lt;div&gt;12.5-50&lt;/div&gt;" style="rounded=0;whiteSpace=wrap;html=1;fillColor=#d5e8d4;strokeColor=#82b366;" parent="1" vertex="1">
          <mxGeometry x="375" y="590" width="100" height="80" as="geometry" />
        </mxCell>
        <mxCell id="OZfzm9xs_ot9Pj_BeB6e-253" value="构筑 铁钉&amp;nbsp;&lt;div&gt;12.5-50&lt;/div&gt;" style="rounded=0;whiteSpace=wrap;html=1;fillColor=#d5e8d4;strokeColor=#82b366;" parent="1" vertex="1">
          <mxGeometry x="375" y="600" width="100" height="80" as="geometry" />
        </mxCell>
        <mxCell id="OZfzm9xs_ot9Pj_BeB6e-254" value="构筑 铁钉&amp;nbsp;&lt;div&gt;12.5-50&lt;/div&gt;" style="rounded=0;whiteSpace=wrap;html=1;fillColor=#d5e8d4;strokeColor=#82b366;" parent="1" vertex="1">
          <mxGeometry x="375" y="610" width="100" height="80" as="geometry" />
        </mxCell>
        <mxCell id="OZfzm9xs_ot9Pj_BeB6e-255" value="构筑 铁钉&amp;nbsp;&lt;div&gt;12.5-50&lt;/div&gt;" style="rounded=0;whiteSpace=wrap;html=1;fillColor=#d5e8d4;strokeColor=#82b366;" parent="1" vertex="1">
          <mxGeometry x="375" y="620" width="100" height="80" as="geometry" />
        </mxCell>
        <mxCell id="OZfzm9xs_ot9Pj_BeB6e-256" value="构筑 铁钉&amp;nbsp;&lt;div&gt;12.5-50&lt;/div&gt;" style="rounded=0;whiteSpace=wrap;html=1;fillColor=#d5e8d4;strokeColor=#82b366;" parent="1" vertex="1">
          <mxGeometry x="295" y="610" width="100" height="80" as="geometry" />
        </mxCell>
        <mxCell id="OZfzm9xs_ot9Pj_BeB6e-257" value="构筑 铁钉&amp;nbsp;&lt;div&gt;12.5-50&lt;/div&gt;" style="rounded=0;whiteSpace=wrap;html=1;fillColor=#d5e8d4;strokeColor=#82b366;" parent="1" vertex="1">
          <mxGeometry x="295" y="620" width="100" height="80" as="geometry" />
        </mxCell>
        <mxCell id="Stdsry_ZmVIjGEiSpqY--1" value="&lt;div&gt;SAM &amp;amp; 石英生产&lt;/div&gt;&lt;div&gt;左侧洞穴&lt;/div&gt;&lt;div&gt;&lt;br&gt;&lt;/div&gt;&lt;div&gt;&lt;br&gt;&lt;/div&gt;右下/左上 中钦金MK2 120pmin&lt;div&gt;4* 30-30=120钦金锭&lt;/div&gt;&lt;div&gt;10 * 12-60=600 极速电线&lt;/div&gt;&lt;div&gt;考虑建一个就够了，，剩下存起来&lt;/div&gt;&lt;div&gt;&lt;br&gt;&lt;/div&gt;&lt;div&gt;硫磺&lt;/div&gt;" style="whiteSpace=wrap;html=1;aspect=fixed;" parent="1" vertex="1">
          <mxGeometry x="-640" y="75" width="195" height="195" as="geometry" />
        </mxCell>
        <mxCell id="Stdsry_ZmVIjGEiSpqY--3" value="左左 2纯石英 1台MK1 120&lt;div&gt;6构筑 共200pmin够了&lt;/div&gt;&lt;div&gt;共MK1+6构筑&lt;/div&gt;" style="rounded=0;whiteSpace=wrap;html=1;" parent="1" vertex="1">
          <mxGeometry x="-640" y="320" width="200" height="60" as="geometry" />
        </mxCell>
        <mxCell id="PZnoFgIiRui3hvkY3LLT-6" value="" style="whiteSpace=wrap;html=1;aspect=fixed;glass=0;" vertex="1" parent="1">
          <mxGeometry x="1160" y="40" width="320" height="320" as="geometry" />
        </mxCell>
        <mxCell id="PZnoFgIiRui3hvkY3LLT-7" value="冶炼 铁锭&lt;div&gt;30-30&lt;/div&gt;" style="rounded=0;whiteSpace=wrap;html=1;fillColor=#f8cecc;strokeColor=#b85450;" vertex="1" parent="1">
          <mxGeometry x="1190" y="70" width="90" height="60" as="geometry" />
        </mxCell>
        <mxCell id="PZnoFgIiRui3hvkY3LLT-8" value="冶炼 铁锭&lt;div&gt;30-30&lt;/div&gt;" style="rounded=0;whiteSpace=wrap;html=1;fillColor=#f8cecc;strokeColor=#b85450;" vertex="1" parent="1">
          <mxGeometry x="1190" y="130" width="90" height="60" as="geometry" />
        </mxCell>
        <mxCell id="PZnoFgIiRui3hvkY3LLT-9" value="冶炼 铁锭&lt;div&gt;30-30&lt;/div&gt;" style="rounded=0;whiteSpace=wrap;html=1;fillColor=#f8cecc;strokeColor=#b85450;" vertex="1" parent="1">
          <mxGeometry x="1190" y="190" width="90" height="60" as="geometry" />
        </mxCell>
        <mxCell id="PZnoFgIiRui3hvkY3LLT-10" value="冶炼 铁锭&lt;div&gt;30-30&lt;/div&gt;" style="rounded=0;whiteSpace=wrap;html=1;fillColor=#f8cecc;strokeColor=#b85450;" vertex="1" parent="1">
          <mxGeometry x="1190" y="250" width="90" height="60" as="geometry" />
        </mxCell>
        <mxCell id="PZnoFgIiRui3hvkY3LLT-11" value="冶炼 铁锭&lt;div&gt;30-30&lt;/div&gt;" style="rounded=0;whiteSpace=wrap;html=1;fillColor=#f8cecc;strokeColor=#b85450;" vertex="1" parent="1">
          <mxGeometry x="1320" y="70" width="90" height="60" as="geometry" />
        </mxCell>
        <mxCell id="PZnoFgIiRui3hvkY3LLT-12" value="冶炼 铁锭&lt;div&gt;30-30&lt;/div&gt;" style="rounded=0;whiteSpace=wrap;html=1;fillColor=#f8cecc;strokeColor=#b85450;" vertex="1" parent="1">
          <mxGeometry x="1320" y="130" width="90" height="60" as="geometry" />
        </mxCell>
        <mxCell id="PZnoFgIiRui3hvkY3LLT-13" value="冶炼 铁锭&lt;div&gt;30-30&lt;/div&gt;" style="rounded=0;whiteSpace=wrap;html=1;fillColor=#f8cecc;strokeColor=#b85450;" vertex="1" parent="1">
          <mxGeometry x="1320" y="190" width="90" height="60" as="geometry" />
        </mxCell>
        <mxCell id="PZnoFgIiRui3hvkY3LLT-14" value="冶炼 铁锭&lt;div&gt;30-30&lt;/div&gt;" style="rounded=0;whiteSpace=wrap;html=1;fillColor=#f8cecc;strokeColor=#b85450;" vertex="1" parent="1">
          <mxGeometry x="1320" y="250" width="90" height="60" as="geometry" />
        </mxCell>
        <mxCell id="PZnoFgIiRui3hvkY3LLT-15" value="" style="whiteSpace=wrap;html=1;aspect=fixed;glass=0;" vertex="1" parent="1">
          <mxGeometry x="840" y="360" width="320" height="320" as="geometry" />
        </mxCell>
        <mxCell id="PZnoFgIiRui3hvkY3LLT-16" value="冶炼 铁锭&lt;div&gt;30-30&lt;/div&gt;" style="rounded=0;whiteSpace=wrap;html=1;fillColor=#f8cecc;strokeColor=#b85450;" vertex="1" parent="1">
          <mxGeometry x="870" y="390" width="90" height="60" as="geometry" />
        </mxCell>
        <mxCell id="PZnoFgIiRui3hvkY3LLT-17" value="冶炼 铁锭&lt;div&gt;30-30&lt;/div&gt;" style="rounded=0;whiteSpace=wrap;html=1;fillColor=#f8cecc;strokeColor=#b85450;" vertex="1" parent="1">
          <mxGeometry x="870" y="450" width="90" height="60" as="geometry" />
        </mxCell>
        <mxCell id="PZnoFgIiRui3hvkY3LLT-18" value="冶炼 铁锭&lt;div&gt;30-30&lt;/div&gt;" style="rounded=0;whiteSpace=wrap;html=1;fillColor=#f8cecc;strokeColor=#b85450;" vertex="1" parent="1">
          <mxGeometry x="870" y="510" width="90" height="60" as="geometry" />
        </mxCell>
        <mxCell id="PZnoFgIiRui3hvkY3LLT-19" value="冶炼 铁锭&lt;div&gt;30-30&lt;/div&gt;" style="rounded=0;whiteSpace=wrap;html=1;fillColor=#f8cecc;strokeColor=#b85450;" vertex="1" parent="1">
          <mxGeometry x="870" y="570" width="90" height="60" as="geometry" />
        </mxCell>
        <mxCell id="PZnoFgIiRui3hvkY3LLT-20" value="冶炼 铁锭&lt;div&gt;30-30&lt;/div&gt;" style="rounded=0;whiteSpace=wrap;html=1;fillColor=#f8cecc;strokeColor=#b85450;" vertex="1" parent="1">
          <mxGeometry x="1000" y="390" width="90" height="60" as="geometry" />
        </mxCell>
        <mxCell id="PZnoFgIiRui3hvkY3LLT-21" value="冶炼 铁锭&lt;div&gt;30-30&lt;/div&gt;" style="rounded=0;whiteSpace=wrap;html=1;fillColor=#f8cecc;strokeColor=#b85450;" vertex="1" parent="1">
          <mxGeometry x="1000" y="450" width="90" height="60" as="geometry" />
        </mxCell>
        <mxCell id="PZnoFgIiRui3hvkY3LLT-22" value="冶炼 铁锭&lt;div&gt;30-30&lt;/div&gt;" style="rounded=0;whiteSpace=wrap;html=1;fillColor=#f8cecc;strokeColor=#b85450;" vertex="1" parent="1">
          <mxGeometry x="1000" y="510" width="90" height="60" as="geometry" />
        </mxCell>
        <mxCell id="PZnoFgIiRui3hvkY3LLT-23" value="冶炼 铁锭&lt;div&gt;30-30&lt;/div&gt;" style="rounded=0;whiteSpace=wrap;html=1;fillColor=#f8cecc;strokeColor=#b85450;" vertex="1" parent="1">
          <mxGeometry x="1000" y="570" width="90" height="60" as="geometry" />
        </mxCell>
        <mxCell id="PZnoFgIiRui3hvkY3LLT-24" value="" style="whiteSpace=wrap;html=1;aspect=fixed;glass=0;" vertex="1" parent="1">
          <mxGeometry x="1160" y="360" width="320" height="320" as="geometry" />
        </mxCell>
        <mxCell id="PZnoFgIiRui3hvkY3LLT-25" value="冶炼 铁锭&lt;div&gt;30-30&lt;/div&gt;" style="rounded=0;whiteSpace=wrap;html=1;fillColor=#f8cecc;strokeColor=#b85450;" vertex="1" parent="1">
          <mxGeometry x="1190" y="390" width="90" height="60" as="geometry" />
        </mxCell>
        <mxCell id="PZnoFgIiRui3hvkY3LLT-26" value="冶炼 铁锭&lt;div&gt;30-30&lt;/div&gt;" style="rounded=0;whiteSpace=wrap;html=1;fillColor=#f8cecc;strokeColor=#b85450;" vertex="1" parent="1">
          <mxGeometry x="1190" y="450" width="90" height="60" as="geometry" />
        </mxCell>
        <mxCell id="PZnoFgIiRui3hvkY3LLT-27" value="冶炼 铁锭&lt;div&gt;30-30&lt;/div&gt;" style="rounded=0;whiteSpace=wrap;html=1;fillColor=#f8cecc;strokeColor=#b85450;" vertex="1" parent="1">
          <mxGeometry x="1190" y="510" width="90" height="60" as="geometry" />
        </mxCell>
        <mxCell id="PZnoFgIiRui3hvkY3LLT-28" value="冶炼 铁锭&lt;div&gt;30-30&lt;/div&gt;" style="rounded=0;whiteSpace=wrap;html=1;fillColor=#f8cecc;strokeColor=#b85450;" vertex="1" parent="1">
          <mxGeometry x="1190" y="570" width="90" height="60" as="geometry" />
        </mxCell>
        <mxCell id="PZnoFgIiRui3hvkY3LLT-29" value="冶炼 铁锭&lt;div&gt;30-30&lt;/div&gt;" style="rounded=0;whiteSpace=wrap;html=1;fillColor=#f8cecc;strokeColor=#b85450;" vertex="1" parent="1">
          <mxGeometry x="1320" y="390" width="90" height="60" as="geometry" />
        </mxCell>
        <mxCell id="PZnoFgIiRui3hvkY3LLT-30" value="冶炼 铁锭&lt;div&gt;30-30&lt;/div&gt;" style="rounded=0;whiteSpace=wrap;html=1;fillColor=#f8cecc;strokeColor=#b85450;" vertex="1" parent="1">
          <mxGeometry x="1320" y="450" width="90" height="60" as="geometry" />
        </mxCell>
        <mxCell id="PZnoFgIiRui3hvkY3LLT-31" value="冶炼 铁锭&lt;div&gt;30-30&lt;/div&gt;" style="rounded=0;whiteSpace=wrap;html=1;fillColor=#f8cecc;strokeColor=#b85450;" vertex="1" parent="1">
          <mxGeometry x="1320" y="510" width="90" height="60" as="geometry" />
        </mxCell>
        <mxCell id="PZnoFgIiRui3hvkY3LLT-32" value="冶炼 铁锭&lt;div&gt;30-30&lt;/div&gt;" style="rounded=0;whiteSpace=wrap;html=1;fillColor=#f8cecc;strokeColor=#b85450;" vertex="1" parent="1">
          <mxGeometry x="1320" y="570" width="90" height="60" as="geometry" />
        </mxCell>
        <mxCell id="PZnoFgIiRui3hvkY3LLT-33" value="" style="whiteSpace=wrap;html=1;aspect=fixed;glass=0;" vertex="1" parent="1">
          <mxGeometry x="840" y="680" width="320" height="320" as="geometry" />
        </mxCell>
        <mxCell id="PZnoFgIiRui3hvkY3LLT-34" value="" style="whiteSpace=wrap;html=1;aspect=fixed;glass=0;" vertex="1" parent="1">
          <mxGeometry x="1160" y="680" width="320" height="320" as="geometry" />
        </mxCell>
        <mxCell id="PZnoFgIiRui3hvkY3LLT-35" value="" style="whiteSpace=wrap;html=1;aspect=fixed;glass=0;" vertex="1" parent="1">
          <mxGeometry x="1480" y="360" width="320" height="320" as="geometry" />
        </mxCell>
        <mxCell id="PZnoFgIiRui3hvkY3LLT-36" value="" style="whiteSpace=wrap;html=1;aspect=fixed;glass=0;" vertex="1" parent="1">
          <mxGeometry x="1480" y="680" width="320" height="320" as="geometry" />
        </mxCell>
        <mxCell id="PZnoFgIiRui3hvkY3LLT-37" value="层高12米 冶炼层" style="whiteSpace=wrap;html=1;aspect=fixed;glass=0;" vertex="1" parent="1">
          <mxGeometry x="1480" y="40" width="320" height="320" as="geometry" />
        </mxCell>
        <mxCell id="PZnoFgIiRui3hvkY3LLT-38" value="" style="whiteSpace=wrap;html=1;aspect=fixed;glass=0;" vertex="1" parent="1">
          <mxGeometry x="1890" y="40" width="320" height="320" as="geometry" />
        </mxCell>
        <mxCell id="PZnoFgIiRui3hvkY3LLT-39" value="" style="whiteSpace=wrap;html=1;aspect=fixed;glass=0;" vertex="1" parent="1">
          <mxGeometry x="1890" y="360" width="320" height="320" as="geometry" />
        </mxCell>
        <mxCell id="PZnoFgIiRui3hvkY3LLT-40" value="" style="whiteSpace=wrap;html=1;aspect=fixed;glass=0;" vertex="1" parent="1">
          <mxGeometry x="2210" y="40" width="320" height="320" as="geometry" />
        </mxCell>
        <mxCell id="PZnoFgIiRui3hvkY3LLT-41" value="" style="whiteSpace=wrap;html=1;aspect=fixed;glass=0;" vertex="1" parent="1">
          <mxGeometry x="2210" y="360" width="320" height="320" as="geometry" />
        </mxCell>
        <mxCell id="PZnoFgIiRui3hvkY3LLT-42" value="层高12米 构筑层" style="whiteSpace=wrap;html=1;aspect=fixed;glass=0;" vertex="1" parent="1">
          <mxGeometry x="2530" y="40" width="320" height="320" as="geometry" />
        </mxCell>
        <mxCell id="PZnoFgIiRui3hvkY3LLT-43" value="" style="whiteSpace=wrap;html=1;aspect=fixed;glass=0;" vertex="1" parent="1">
          <mxGeometry x="2530" y="360" width="320" height="320" as="geometry" />
        </mxCell>
        <mxCell id="PZnoFgIiRui3hvkY3LLT-44" value="构筑 铁板30-20" style="rounded=0;whiteSpace=wrap;html=1;fillColor=#d5e8d4;strokeColor=#82b366;" vertex="1" parent="1">
          <mxGeometry x="1920" y="55" width="100" height="80" as="geometry" />
        </mxCell>
        <mxCell id="PZnoFgIiRui3hvkY3LLT-45" value="构筑 铁板30-20" style="rounded=0;whiteSpace=wrap;html=1;fillColor=#d5e8d4;strokeColor=#82b366;" vertex="1" parent="1">
          <mxGeometry x="1920" y="150" width="100" height="80" as="geometry" />
        </mxCell>
        <mxCell id="PZnoFgIiRui3hvkY3LLT-46" value="构筑 铁板30-20" style="rounded=0;whiteSpace=wrap;html=1;fillColor=#d5e8d4;strokeColor=#82b366;" vertex="1" parent="1">
          <mxGeometry x="1920" y="250" width="100" height="80" as="geometry" />
        </mxCell>
        <mxCell id="PZnoFgIiRui3hvkY3LLT-47" value="构筑 铁板30-20" style="rounded=0;whiteSpace=wrap;html=1;fillColor=#d5e8d4;strokeColor=#82b366;" vertex="1" parent="1">
          <mxGeometry x="2067.5" y="55" width="100" height="80" as="geometry" />
        </mxCell>
        <mxCell id="PZnoFgIiRui3hvkY3LLT-48" value="构筑 铁板30-20" style="rounded=0;whiteSpace=wrap;html=1;fillColor=#d5e8d4;strokeColor=#82b366;" vertex="1" parent="1">
          <mxGeometry x="2068" y="150" width="100" height="80" as="geometry" />
        </mxCell>
        <mxCell id="PZnoFgIiRui3hvkY3LLT-49" value="构筑 铁板30-20" style="rounded=0;whiteSpace=wrap;html=1;fillColor=#d5e8d4;strokeColor=#82b366;" vertex="1" parent="1">
          <mxGeometry x="2067.5" y="250" width="100" height="80" as="geometry" />
        </mxCell>
        <mxCell id="PZnoFgIiRui3hvkY3LLT-50" value="构筑 铁棍15-15" style="rounded=0;whiteSpace=wrap;html=1;fillColor=#d5e8d4;strokeColor=#82b366;" vertex="1" parent="1">
          <mxGeometry x="2260" y="60" width="100" height="80" as="geometry" />
        </mxCell>
        <mxCell id="PZnoFgIiRui3hvkY3LLT-51" value="构筑 铁棍15-15" style="rounded=0;whiteSpace=wrap;html=1;fillColor=#d5e8d4;strokeColor=#82b366;" vertex="1" parent="1">
          <mxGeometry x="2381" y="60" width="100" height="80" as="geometry" />
        </mxCell>
        <mxCell id="PZnoFgIiRui3hvkY3LLT-52" value="构筑 铁棍15-15" style="rounded=0;whiteSpace=wrap;html=1;fillColor=#d5e8d4;strokeColor=#82b366;" vertex="1" parent="1">
          <mxGeometry x="2260" y="140" width="100" height="80" as="geometry" />
        </mxCell>
        <mxCell id="PZnoFgIiRui3hvkY3LLT-53" value="构筑 铁棍15-15" style="rounded=0;whiteSpace=wrap;html=1;fillColor=#d5e8d4;strokeColor=#82b366;" vertex="1" parent="1">
          <mxGeometry x="2381" y="140" width="100" height="80" as="geometry" />
        </mxCell>
        <mxCell id="PZnoFgIiRui3hvkY3LLT-54" value="构筑 铁棍15-15" style="rounded=0;whiteSpace=wrap;html=1;fillColor=#d5e8d4;strokeColor=#82b366;" vertex="1" parent="1">
          <mxGeometry x="2260" y="220" width="100" height="80" as="geometry" />
        </mxCell>
        <mxCell id="PZnoFgIiRui3hvkY3LLT-55" value="构筑 铁棍15-15" style="rounded=0;whiteSpace=wrap;html=1;fillColor=#d5e8d4;strokeColor=#82b366;" vertex="1" parent="1">
          <mxGeometry x="2381" y="220" width="100" height="80" as="geometry" />
        </mxCell>
        <mxCell id="PZnoFgIiRui3hvkY3LLT-56" value="构筑 铁棍15-15" style="rounded=0;whiteSpace=wrap;html=1;fillColor=#d5e8d4;strokeColor=#82b366;" vertex="1" parent="1">
          <mxGeometry x="2260" y="300" width="100" height="80" as="geometry" />
        </mxCell>
        <mxCell id="PZnoFgIiRui3hvkY3LLT-57" value="构筑 铁棍15-15" style="rounded=0;whiteSpace=wrap;html=1;fillColor=#d5e8d4;strokeColor=#82b366;" vertex="1" parent="1">
          <mxGeometry x="2381" y="300" width="100" height="80" as="geometry" />
        </mxCell>
        <mxCell id="PZnoFgIiRui3hvkY3LLT-63" value="" style="whiteSpace=wrap;html=1;aspect=fixed;glass=0;" vertex="1" parent="1">
          <mxGeometry x="1890" y="680" width="320" height="320" as="geometry" />
        </mxCell>
        <mxCell id="PZnoFgIiRui3hvkY3LLT-69" value="构筑 钢管 30-20" style="rounded=0;whiteSpace=wrap;html=1;fillColor=#d5e8d4;strokeColor=#82b366;" vertex="1" parent="1">
          <mxGeometry x="1920" y="465" width="100" height="80" as="geometry" />
        </mxCell>
        <mxCell id="PZnoFgIiRui3hvkY3LLT-71" value="" style="whiteSpace=wrap;html=1;aspect=fixed;glass=0;" vertex="1" parent="1">
          <mxGeometry x="2530" y="680" width="320" height="320" as="geometry" />
        </mxCell>
        <mxCell id="PZnoFgIiRui3hvkY3LLT-74" value="" style="rounded=1;whiteSpace=wrap;html=1;fillColor=none;" vertex="1" parent="1">
          <mxGeometry x="860" y="60" width="250" height="190" as="geometry" />
        </mxCell>
        <mxCell id="PZnoFgIiRui3hvkY3LLT-73" value="构筑 钢管 30-20" style="rounded=0;whiteSpace=wrap;html=1;fillColor=#d5e8d4;strokeColor=#82b366;" vertex="1" parent="1">
          <mxGeometry x="1920" y="370" width="100" height="80" as="geometry" />
        </mxCell>
        <mxCell id="PZnoFgIiRui3hvkY3LLT-75" value="" style="rounded=1;whiteSpace=wrap;html=1;fillColor=none;" vertex="1" parent="1">
          <mxGeometry x="1170" y="60" width="260" height="130" as="geometry" />
        </mxCell>
        <mxCell id="PZnoFgIiRui3hvkY3LLT-76" value="" style="rounded=1;whiteSpace=wrap;html=1;fillColor=none;" vertex="1" parent="1">
          <mxGeometry x="860" y="250" width="250" height="400" as="geometry" />
        </mxCell>
        <mxCell id="PZnoFgIiRui3hvkY3LLT-78" value="构筑 钢管 30-20" style="rounded=0;whiteSpace=wrap;html=1;fillColor=#d5e8d4;strokeColor=#82b366;" vertex="1" parent="1">
          <mxGeometry x="1920" y="560" width="100" height="80" as="geometry" />
        </mxCell>
        <mxCell id="PZnoFgIiRui3hvkY3LLT-79" value="构筑 铁钉&amp;nbsp;&lt;div&gt;12.5-50&lt;/div&gt;" style="rounded=0;whiteSpace=wrap;html=1;fillColor=#d5e8d4;strokeColor=#82b366;" vertex="1" parent="1">
          <mxGeometry x="2090" y="400" width="100" height="80" as="geometry" />
        </mxCell>
        <mxCell id="PZnoFgIiRui3hvkY3LLT-80" value="构筑 铁钉&amp;nbsp;&lt;div&gt;12.5-50&lt;/div&gt;" style="rounded=0;whiteSpace=wrap;html=1;fillColor=#d5e8d4;strokeColor=#82b366;" vertex="1" parent="1">
          <mxGeometry x="2090" y="470" width="100" height="80" as="geometry" />
        </mxCell>
        <mxCell id="PZnoFgIiRui3hvkY3LLT-81" value="构筑 铁钉&amp;nbsp;&lt;div&gt;12.5-50&lt;/div&gt;" style="rounded=0;whiteSpace=wrap;html=1;fillColor=#d5e8d4;strokeColor=#82b366;" vertex="1" parent="1">
          <mxGeometry x="2090" y="550" width="100" height="80" as="geometry" />
        </mxCell>
        <mxCell id="PZnoFgIiRui3hvkY3LLT-82" value="构筑 铁钉&amp;nbsp;&lt;div&gt;12.5-50&lt;/div&gt;" style="rounded=0;whiteSpace=wrap;html=1;fillColor=#d5e8d4;strokeColor=#82b366;" vertex="1" parent="1">
          <mxGeometry x="2260" y="400" width="100" height="80" as="geometry" />
        </mxCell>
        <mxCell id="PZnoFgIiRui3hvkY3LLT-83" value="构筑 铁钉&amp;nbsp;&lt;div&gt;12.5-50&lt;/div&gt;" style="rounded=0;whiteSpace=wrap;html=1;fillColor=#d5e8d4;strokeColor=#82b366;" vertex="1" parent="1">
          <mxGeometry x="2260" y="470" width="100" height="80" as="geometry" />
        </mxCell>
        <mxCell id="PZnoFgIiRui3hvkY3LLT-84" value="构筑 铁钉&amp;nbsp;&lt;div&gt;12.5-50&lt;/div&gt;" style="rounded=0;whiteSpace=wrap;html=1;fillColor=#d5e8d4;strokeColor=#82b366;" vertex="1" parent="1">
          <mxGeometry x="2260" y="550" width="100" height="80" as="geometry" />
        </mxCell>
        <mxCell id="PZnoFgIiRui3hvkY3LLT-85" value="构筑 铁钉&amp;nbsp;&lt;div&gt;12.5-50&lt;/div&gt;" style="rounded=0;whiteSpace=wrap;html=1;fillColor=#d5e8d4;strokeColor=#82b366;" vertex="1" parent="1">
          <mxGeometry x="2400" y="405" width="100" height="80" as="geometry" />
        </mxCell>
        <mxCell id="PZnoFgIiRui3hvkY3LLT-86" value="构筑 铁钉&amp;nbsp;&lt;div&gt;12.5-50&lt;/div&gt;" style="rounded=0;whiteSpace=wrap;html=1;fillColor=#d5e8d4;strokeColor=#82b366;" vertex="1" parent="1">
          <mxGeometry x="2400" y="475" width="100" height="80" as="geometry" />
        </mxCell>
        <mxCell id="PZnoFgIiRui3hvkY3LLT-87" value="构筑 铁钉&amp;nbsp;&lt;div&gt;12.5-50&lt;/div&gt;" style="rounded=0;whiteSpace=wrap;html=1;fillColor=#d5e8d4;strokeColor=#82b366;" vertex="1" parent="1">
          <mxGeometry x="2400" y="555" width="100" height="80" as="geometry" />
        </mxCell>
        <mxCell id="PZnoFgIiRui3hvkY3LLT-94" value="构筑 铁钉&amp;nbsp;&lt;div&gt;12.5-50&lt;/div&gt;" style="rounded=0;whiteSpace=wrap;html=1;fillColor=#d5e8d4;strokeColor=#82b366;" vertex="1" parent="1">
          <mxGeometry x="2400" y="710" width="100" height="80" as="geometry" />
        </mxCell>
        <mxCell id="PZnoFgIiRui3hvkY3LLT-95" value="构筑 铁钉&amp;nbsp;&lt;div&gt;12.5-50&lt;/div&gt;" style="rounded=0;whiteSpace=wrap;html=1;fillColor=#d5e8d4;strokeColor=#82b366;" vertex="1" parent="1">
          <mxGeometry x="2400" y="780" width="100" height="80" as="geometry" />
        </mxCell>
        <mxCell id="PZnoFgIiRui3hvkY3LLT-96" value="构筑 铁钉&amp;nbsp;&lt;div&gt;12.5-50&lt;/div&gt;" style="rounded=0;whiteSpace=wrap;html=1;fillColor=#d5e8d4;strokeColor=#82b366;" vertex="1" parent="1">
          <mxGeometry x="2400" y="860" width="100" height="80" as="geometry" />
        </mxCell>
        <mxCell id="PZnoFgIiRui3hvkY3LLT-97" value="构筑 铁钉&amp;nbsp;&lt;div&gt;12.5-50&lt;/div&gt;" style="rounded=0;whiteSpace=wrap;html=1;fillColor=#d5e8d4;strokeColor=#82b366;" vertex="1" parent="1">
          <mxGeometry x="2260" y="710" width="100" height="80" as="geometry" />
        </mxCell>
        <mxCell id="PZnoFgIiRui3hvkY3LLT-98" value="构筑 铁钉&amp;nbsp;&lt;div&gt;12.5-50&lt;/div&gt;" style="rounded=0;whiteSpace=wrap;html=1;fillColor=#d5e8d4;strokeColor=#82b366;" vertex="1" parent="1">
          <mxGeometry x="2260" y="780" width="100" height="80" as="geometry" />
        </mxCell>
        <mxCell id="PZnoFgIiRui3hvkY3LLT-99" value="构筑 铁钉&amp;nbsp;&lt;div&gt;12.5-50&lt;/div&gt;" style="rounded=0;whiteSpace=wrap;html=1;fillColor=#d5e8d4;strokeColor=#82b366;" vertex="1" parent="1">
          <mxGeometry x="2260" y="860" width="100" height="80" as="geometry" />
        </mxCell>
        <mxCell id="PZnoFgIiRui3hvkY3LLT-100" value="" style="rounded=1;whiteSpace=wrap;html=1;fillColor=none;" vertex="1" parent="1">
          <mxGeometry x="1180" y="370" width="240" height="200" as="geometry" />
        </mxCell>
        <mxCell id="PZnoFgIiRui3hvkY3LLT-101" value="" style="rounded=1;whiteSpace=wrap;html=1;fillColor=none;" vertex="1" parent="1">
          <mxGeometry x="1170" y="190" width="260" height="130" as="geometry" />
        </mxCell>
        <mxCell id="PZnoFgIiRui3hvkY3LLT-102" value="" style="rounded=1;whiteSpace=wrap;html=1;fillColor=none;" vertex="1" parent="1">
          <mxGeometry x="1180" y="570" width="240" height="70" as="geometry" />
        </mxCell>
        <mxCell id="PZnoFgIiRui3hvkY3LLT-103" value="" style="shape=flexArrow;endArrow=classic;html=1;rounded=0;exitX=0.5;exitY=0;exitDx=0;exitDy=0;" edge="1" parent="1" source="PZnoFgIiRui3hvkY3LLT-75">
          <mxGeometry width="50" height="50" relative="1" as="geometry">
            <mxPoint x="1670" y="490" as="sourcePoint" />
            <mxPoint x="1300" y="-30" as="targetPoint" />
          </mxGeometry>
        </mxCell>
        <mxCell id="PZnoFgIiRui3hvkY3LLT-104" value="构筑机动" style="rounded=0;whiteSpace=wrap;html=1;fillColor=#d5e8d4;strokeColor=#82b366;" vertex="1" parent="1">
          <mxGeometry x="1990" y="710" width="100" height="80" as="geometry" />
        </mxCell>
        <mxCell id="PZnoFgIiRui3hvkY3LLT-105" value="构筑机动" style="rounded=0;whiteSpace=wrap;html=1;fillColor=#d5e8d4;strokeColor=#82b366;" vertex="1" parent="1">
          <mxGeometry x="1990" y="820" width="100" height="80" as="geometry" />
        </mxCell>
        <mxCell id="PZnoFgIiRui3hvkY3LLT-106" value="存储 混凝土" style="rounded=0;whiteSpace=wrap;html=1;" vertex="1" parent="1">
          <mxGeometry x="2690" y="70" width="100" height="50" as="geometry" />
        </mxCell>
        <mxCell id="PZnoFgIiRui3hvkY3LLT-107" value="存储 混凝土" style="rounded=0;whiteSpace=wrap;html=1;" vertex="1" parent="1">
          <mxGeometry x="2690" y="135" width="100" height="50" as="geometry" />
        </mxCell>
        <mxCell id="PZnoFgIiRui3hvkY3LLT-108" value="存储 混凝土" style="rounded=0;whiteSpace=wrap;html=1;" vertex="1" parent="1">
          <mxGeometry x="2690" y="210" width="100" height="50" as="geometry" />
        </mxCell>
        <mxCell id="PZnoFgIiRui3hvkY3LLT-109" value="存储 混凝土" style="rounded=0;whiteSpace=wrap;html=1;" vertex="1" parent="1">
          <mxGeometry x="2690" y="280" width="100" height="50" as="geometry" />
        </mxCell>
        <mxCell id="PZnoFgIiRui3hvkY3LLT-110" value="装配 铁框&lt;div&gt;12棍-3强板-2&lt;/div&gt;" style="rounded=0;whiteSpace=wrap;html=1;fillColor=#dae8fc;strokeColor=#6c8ebf;" vertex="1" parent="1">
          <mxGeometry x="1040" y="-100" width="150" height="100" as="geometry" />
        </mxCell>
        <mxCell id="PZnoFgIiRui3hvkY3LLT-111" value="" style="whiteSpace=wrap;html=1;aspect=fixed;glass=0;" vertex="1" parent="1">
          <mxGeometry x="840" y="1200" width="320" height="320" as="geometry" />
        </mxCell>
        <mxCell id="PZnoFgIiRui3hvkY3LLT-120" value="" style="whiteSpace=wrap;html=1;aspect=fixed;glass=0;" vertex="1" parent="1">
          <mxGeometry x="1160" y="1200" width="320" height="320" as="geometry" />
        </mxCell>
        <mxCell id="PZnoFgIiRui3hvkY3LLT-129" value="" style="whiteSpace=wrap;html=1;aspect=fixed;glass=0;" vertex="1" parent="1">
          <mxGeometry x="840" y="1520" width="320" height="320" as="geometry" />
        </mxCell>
        <mxCell id="PZnoFgIiRui3hvkY3LLT-138" value="" style="whiteSpace=wrap;html=1;aspect=fixed;glass=0;" vertex="1" parent="1">
          <mxGeometry x="1160" y="1520" width="320" height="320" as="geometry" />
        </mxCell>
        <mxCell id="PZnoFgIiRui3hvkY3LLT-147" value="" style="whiteSpace=wrap;html=1;aspect=fixed;glass=0;" vertex="1" parent="1">
          <mxGeometry x="840" y="1840" width="320" height="320" as="geometry" />
        </mxCell>
        <mxCell id="PZnoFgIiRui3hvkY3LLT-148" value="" style="whiteSpace=wrap;html=1;aspect=fixed;glass=0;" vertex="1" parent="1">
          <mxGeometry x="1160" y="1840" width="320" height="320" as="geometry" />
        </mxCell>
        <mxCell id="PZnoFgIiRui3hvkY3LLT-149" value="" style="whiteSpace=wrap;html=1;aspect=fixed;glass=0;" vertex="1" parent="1">
          <mxGeometry x="1480" y="1520" width="320" height="320" as="geometry" />
        </mxCell>
        <mxCell id="PZnoFgIiRui3hvkY3LLT-150" value="" style="whiteSpace=wrap;html=1;aspect=fixed;glass=0;" vertex="1" parent="1">
          <mxGeometry x="1480" y="1840" width="320" height="320" as="geometry" />
        </mxCell>
        <mxCell id="PZnoFgIiRui3hvkY3LLT-151" value="层高12米 冶炼层" style="whiteSpace=wrap;html=1;aspect=fixed;glass=0;" vertex="1" parent="1">
          <mxGeometry x="1480" y="1200" width="320" height="320" as="geometry" />
        </mxCell>
        <mxCell id="PZnoFgIiRui3hvkY3LLT-158" value="装配 铁框&lt;div&gt;12棍-3强板-2&lt;/div&gt;" style="rounded=0;whiteSpace=wrap;html=1;fillColor=#dae8fc;strokeColor=#6c8ebf;" vertex="1" parent="1">
          <mxGeometry x="860" y="1220" width="150" height="100" as="geometry" />
        </mxCell>
        <mxCell id="PZnoFgIiRui3hvkY3LLT-159" value="装配 铁框&lt;div&gt;12棍-3强板-2&lt;/div&gt;" style="rounded=0;whiteSpace=wrap;html=1;fillColor=#dae8fc;strokeColor=#6c8ebf;" vertex="1" parent="1">
          <mxGeometry x="860" y="1330" width="150" height="100" as="geometry" />
        </mxCell>
        <mxCell id="PZnoFgIiRui3hvkY3LLT-160" value="装配 铁框&lt;div&gt;12棍-3强板-2&lt;/div&gt;" style="rounded=0;whiteSpace=wrap;html=1;fillColor=#dae8fc;strokeColor=#6c8ebf;" vertex="1" parent="1">
          <mxGeometry x="860" y="1440" width="150" height="100" as="geometry" />
        </mxCell>
        <mxCell id="PZnoFgIiRui3hvkY3LLT-161" value="装配 铁框&lt;div&gt;12棍-3强板-2&lt;/div&gt;" style="rounded=0;whiteSpace=wrap;html=1;fillColor=#dae8fc;strokeColor=#6c8ebf;" vertex="1" parent="1">
          <mxGeometry x="1110" y="1220" width="150" height="100" as="geometry" />
        </mxCell>
        <mxCell id="PZnoFgIiRui3hvkY3LLT-162" value="装配 铁框&lt;div&gt;12棍-3强板-2&lt;/div&gt;" style="rounded=0;whiteSpace=wrap;html=1;fillColor=#dae8fc;strokeColor=#6c8ebf;" vertex="1" parent="1">
          <mxGeometry x="1110" y="1330" width="150" height="100" as="geometry" />
        </mxCell>
        <mxCell id="PZnoFgIiRui3hvkY3LLT-163" value="装配 铁框&lt;div&gt;12棍-3强板-2&lt;/div&gt;" style="rounded=0;whiteSpace=wrap;html=1;fillColor=#dae8fc;strokeColor=#6c8ebf;" vertex="1" parent="1">
          <mxGeometry x="1110" y="1440" width="150" height="100" as="geometry" />
        </mxCell>
        <mxCell id="PZnoFgIiRui3hvkY3LLT-164" value="装配 铁框&lt;div&gt;12棍-3强板-2&lt;/div&gt;" style="rounded=0;whiteSpace=wrap;html=1;fillColor=#dae8fc;strokeColor=#6c8ebf;" vertex="1" parent="1">
          <mxGeometry x="1330" y="1220" width="150" height="100" as="geometry" />
        </mxCell>
        <mxCell id="PZnoFgIiRui3hvkY3LLT-165" value="装配 铁框&lt;div&gt;12棍-3强板-2&lt;/div&gt;" style="rounded=0;whiteSpace=wrap;html=1;fillColor=#dae8fc;strokeColor=#6c8ebf;" vertex="1" parent="1">
          <mxGeometry x="1330" y="1330" width="150" height="100" as="geometry" />
        </mxCell>
        <mxCell id="PZnoFgIiRui3hvkY3LLT-166" value="装配 铁框&lt;div&gt;12棍-3强板-2&lt;/div&gt;" style="rounded=0;whiteSpace=wrap;html=1;fillColor=#dae8fc;strokeColor=#6c8ebf;" vertex="1" parent="1">
          <mxGeometry x="1330" y="1440" width="150" height="100" as="geometry" />
        </mxCell>
        <mxCell id="PZnoFgIiRui3hvkY3LLT-167" value="装配 铁框&lt;div&gt;12棍-3强板-2&lt;/div&gt;" style="rounded=0;whiteSpace=wrap;html=1;fillColor=#dae8fc;strokeColor=#6c8ebf;" vertex="1" parent="1">
          <mxGeometry x="860" y="1570" width="150" height="100" as="geometry" />
        </mxCell>
        <mxCell id="PZnoFgIiRui3hvkY3LLT-168" value="装配 铁框&lt;div&gt;12棍-3强板-2&lt;/div&gt;" style="rounded=0;whiteSpace=wrap;html=1;fillColor=#dae8fc;strokeColor=#6c8ebf;" vertex="1" parent="1">
          <mxGeometry x="860" y="1680" width="150" height="100" as="geometry" />
        </mxCell>
        <mxCell id="PZnoFgIiRui3hvkY3LLT-169" value="装配 铁框&lt;div&gt;12棍-3强板-2&lt;/div&gt;" style="rounded=0;whiteSpace=wrap;html=1;fillColor=#dae8fc;strokeColor=#6c8ebf;" vertex="1" parent="1">
          <mxGeometry x="860" y="1790" width="150" height="100" as="geometry" />
        </mxCell>
        <mxCell id="PZnoFgIiRui3hvkY3LLT-170" value="装配 铁框&lt;div&gt;12棍-3强板-2&lt;/div&gt;" style="rounded=0;whiteSpace=wrap;html=1;fillColor=#dae8fc;strokeColor=#6c8ebf;" vertex="1" parent="1">
          <mxGeometry x="1100" y="1570" width="150" height="100" as="geometry" />
        </mxCell>
        <mxCell id="PZnoFgIiRui3hvkY3LLT-171" value="装配 铁框&lt;div&gt;12棍-3强板-2&lt;/div&gt;" style="rounded=0;whiteSpace=wrap;html=1;fillColor=#dae8fc;strokeColor=#6c8ebf;" vertex="1" parent="1">
          <mxGeometry x="1100" y="1680" width="150" height="100" as="geometry" />
        </mxCell>
        <mxCell id="PZnoFgIiRui3hvkY3LLT-172" value="装配 铁框&lt;div&gt;12棍-3强板-2&lt;/div&gt;" style="rounded=0;whiteSpace=wrap;html=1;fillColor=#dae8fc;strokeColor=#6c8ebf;" vertex="1" parent="1">
          <mxGeometry x="1100" y="1790" width="150" height="100" as="geometry" />
        </mxCell>
        <mxCell id="PZnoFgIiRui3hvkY3LLT-173" value="装配 铁框&lt;div&gt;12棍-3强板-2&lt;/div&gt;" style="rounded=0;whiteSpace=wrap;html=1;fillColor=#dae8fc;strokeColor=#6c8ebf;" vertex="1" parent="1">
          <mxGeometry x="1330" y="1590" width="150" height="100" as="geometry" />
        </mxCell>
        <mxCell id="PZnoFgIiRui3hvkY3LLT-174" value="装配 铁框&lt;div&gt;12棍-3强板-2&lt;/div&gt;" style="rounded=0;whiteSpace=wrap;html=1;fillColor=#dae8fc;strokeColor=#6c8ebf;" vertex="1" parent="1">
          <mxGeometry x="1330" y="1700" width="150" height="100" as="geometry" />
        </mxCell>
        <mxCell id="PZnoFgIiRui3hvkY3LLT-175" value="装配 铁框&lt;div&gt;12棍-3强板-2&lt;/div&gt;" style="rounded=0;whiteSpace=wrap;html=1;fillColor=#dae8fc;strokeColor=#6c8ebf;" vertex="1" parent="1">
          <mxGeometry x="1330" y="1810" width="150" height="100" as="geometry" />
        </mxCell>
        <mxCell id="PZnoFgIiRui3hvkY3LLT-176" value="制造站" style="rounded=0;whiteSpace=wrap;html=1;fillColor=#fff2cc;strokeColor=#d6b656;" vertex="1" parent="1">
          <mxGeometry x="1400" y="-240" width="220" height="200" as="geometry" />
        </mxCell>
        <mxCell id="PZnoFgIiRui3hvkY3LLT-177" value="" style="whiteSpace=wrap;html=1;aspect=fixed;glass=0;" vertex="1" parent="1">
          <mxGeometry x="2260" y="1840" width="320" height="320" as="geometry" />
        </mxCell>
        <mxCell id="PZnoFgIiRui3hvkY3LLT-178" value="" style="whiteSpace=wrap;html=1;aspect=fixed;glass=0;" vertex="1" parent="1">
          <mxGeometry x="1940" y="1200" width="320" height="320" as="geometry" />
        </mxCell>
        <mxCell id="PZnoFgIiRui3hvkY3LLT-179" value="" style="whiteSpace=wrap;html=1;aspect=fixed;glass=0;" vertex="1" parent="1">
          <mxGeometry x="1940" y="1520" width="320" height="320" as="geometry" />
        </mxCell>
        <mxCell id="PZnoFgIiRui3hvkY3LLT-180" value="" style="whiteSpace=wrap;html=1;aspect=fixed;glass=0;" vertex="1" parent="1">
          <mxGeometry x="2260" y="1200" width="320" height="320" as="geometry" />
        </mxCell>
        <mxCell id="PZnoFgIiRui3hvkY3LLT-181" value="" style="whiteSpace=wrap;html=1;aspect=fixed;glass=0;" vertex="1" parent="1">
          <mxGeometry x="2260" y="1520" width="320" height="320" as="geometry" />
        </mxCell>
        <mxCell id="PZnoFgIiRui3hvkY3LLT-182" value="层高12米 构筑层" style="whiteSpace=wrap;html=1;aspect=fixed;glass=0;" vertex="1" parent="1">
          <mxGeometry x="2580" y="1200" width="320" height="320" as="geometry" />
        </mxCell>
        <mxCell id="PZnoFgIiRui3hvkY3LLT-183" value="" style="whiteSpace=wrap;html=1;aspect=fixed;glass=0;" vertex="1" parent="1">
          <mxGeometry x="2580" y="1520" width="320" height="320" as="geometry" />
        </mxCell>
        <mxCell id="PZnoFgIiRui3hvkY3LLT-198" value="" style="whiteSpace=wrap;html=1;aspect=fixed;glass=0;" vertex="1" parent="1">
          <mxGeometry x="1940" y="1840" width="320" height="320" as="geometry" />
        </mxCell>
        <mxCell id="PZnoFgIiRui3hvkY3LLT-200" value="" style="whiteSpace=wrap;html=1;aspect=fixed;glass=0;" vertex="1" parent="1">
          <mxGeometry x="2580" y="1840" width="320" height="320" as="geometry" />
        </mxCell>
        <mxCell id="PZnoFgIiRui3hvkY3LLT-224" value="制造站" style="rounded=0;whiteSpace=wrap;html=1;fillColor=#fff2cc;strokeColor=#d6b656;" vertex="1" parent="1">
          <mxGeometry x="1990" y="1250" width="220" height="200" as="geometry" />
        </mxCell>
        <mxCell id="PZnoFgIiRui3hvkY3LLT-225" value="制造站" style="rounded=0;whiteSpace=wrap;html=1;fillColor=#fff2cc;strokeColor=#d6b656;" vertex="1" parent="1">
          <mxGeometry x="1990" y="1490" width="220" height="200" as="geometry" />
        </mxCell>
        <mxCell id="PZnoFgIiRui3hvkY3LLT-226" value="制造站" style="rounded=0;whiteSpace=wrap;html=1;fillColor=#fff2cc;strokeColor=#d6b656;" vertex="1" parent="1">
          <mxGeometry x="1990" y="1740" width="220" height="200" as="geometry" />
        </mxCell>
        <mxCell id="PZnoFgIiRui3hvkY3LLT-228" value="制造站" style="rounded=0;whiteSpace=wrap;html=1;fillColor=#fff2cc;strokeColor=#d6b656;" vertex="1" parent="1">
          <mxGeometry x="2310" y="1250" width="220" height="200" as="geometry" />
        </mxCell>
        <mxCell id="PZnoFgIiRui3hvkY3LLT-229" value="制造站" style="rounded=0;whiteSpace=wrap;html=1;fillColor=#fff2cc;strokeColor=#d6b656;" vertex="1" parent="1">
          <mxGeometry x="2310" y="1490" width="220" height="200" as="geometry" />
        </mxCell>
        <mxCell id="PZnoFgIiRui3hvkY3LLT-230" value="制造站" style="rounded=0;whiteSpace=wrap;html=1;fillColor=#fff2cc;strokeColor=#d6b656;" vertex="1" parent="1">
          <mxGeometry x="2310" y="1740" width="220" height="200" as="geometry" />
        </mxCell>
        <mxCell id="PZnoFgIiRui3hvkY3LLT-231" value="制造站" style="rounded=0;whiteSpace=wrap;html=1;fillColor=#fff2cc;strokeColor=#d6b656;" vertex="1" parent="1">
          <mxGeometry x="2620" y="1250" width="220" height="200" as="geometry" />
        </mxCell>
        <mxCell id="PZnoFgIiRui3hvkY3LLT-232" value="制造站" style="rounded=0;whiteSpace=wrap;html=1;fillColor=#fff2cc;strokeColor=#d6b656;" vertex="1" parent="1">
          <mxGeometry x="2620" y="1490" width="220" height="200" as="geometry" />
        </mxCell>
        <mxCell id="PZnoFgIiRui3hvkY3LLT-233" value="制造站" style="rounded=0;whiteSpace=wrap;html=1;fillColor=#fff2cc;strokeColor=#d6b656;" vertex="1" parent="1">
          <mxGeometry x="2620" y="1740" width="220" height="200" as="geometry" />
        </mxCell>
        <mxCell id="PZnoFgIiRui3hvkY3LLT-234" value="冶炼 铜锭&lt;div&gt;30-30&lt;/div&gt;" style="rounded=0;whiteSpace=wrap;html=1;fillColor=#f8cecc;strokeColor=#b85450;" vertex="1" parent="1">
          <mxGeometry x="342.5" y="-940" width="90" height="60" as="geometry" />
        </mxCell>
        <mxCell id="PZnoFgIiRui3hvkY3LLT-235" value="冶炼 铜锭&lt;div&gt;30-30&lt;/div&gt;" style="rounded=0;whiteSpace=wrap;html=1;fillColor=#f8cecc;strokeColor=#b85450;" vertex="1" parent="1">
          <mxGeometry x="342.5" y="-880" width="90" height="60" as="geometry" />
        </mxCell>
        <mxCell id="PZnoFgIiRui3hvkY3LLT-236" value="冶炼 铜锭&lt;div&gt;30-30&lt;/div&gt;" style="rounded=0;whiteSpace=wrap;html=1;fillColor=#f8cecc;strokeColor=#b85450;" vertex="1" parent="1">
          <mxGeometry x="342.5" y="-820" width="90" height="60" as="geometry" />
        </mxCell>
        <mxCell id="PZnoFgIiRui3hvkY3LLT-237" value="冶炼 铜锭&lt;div&gt;30-30&lt;/div&gt;" style="rounded=0;whiteSpace=wrap;html=1;fillColor=#f8cecc;strokeColor=#b85450;" vertex="1" parent="1">
          <mxGeometry x="342.5" y="-760" width="90" height="60" as="geometry" />
        </mxCell>
        <mxCell id="PZnoFgIiRui3hvkY3LLT-239" value="冶炼 铜锭&lt;div&gt;30-30&lt;/div&gt;" style="rounded=0;whiteSpace=wrap;html=1;fillColor=#f8cecc;strokeColor=#b85450;" vertex="1" parent="1">
          <mxGeometry x="500" y="-940" width="90" height="60" as="geometry" />
        </mxCell>
        <mxCell id="PZnoFgIiRui3hvkY3LLT-240" value="冶炼 铜锭&lt;div&gt;30-30&lt;/div&gt;" style="rounded=0;whiteSpace=wrap;html=1;fillColor=#f8cecc;strokeColor=#b85450;" vertex="1" parent="1">
          <mxGeometry x="500" y="-880" width="90" height="60" as="geometry" />
        </mxCell>
        <mxCell id="PZnoFgIiRui3hvkY3LLT-241" value="冶炼 铜锭&lt;div&gt;30-30&lt;/div&gt;" style="rounded=0;whiteSpace=wrap;html=1;fillColor=#f8cecc;strokeColor=#b85450;" vertex="1" parent="1">
          <mxGeometry x="500" y="-820" width="90" height="60" as="geometry" />
        </mxCell>
        <mxCell id="PZnoFgIiRui3hvkY3LLT-242" value="冶炼 铜锭&lt;div&gt;30-30&lt;/div&gt;" style="rounded=0;whiteSpace=wrap;html=1;fillColor=#f8cecc;strokeColor=#b85450;" vertex="1" parent="1">
          <mxGeometry x="500" y="-760" width="90" height="60" as="geometry" />
        </mxCell>
        <mxCell id="PZnoFgIiRui3hvkY3LLT-243" value="" style="whiteSpace=wrap;html=1;aspect=fixed;glass=0;fillColor=none;" vertex="1" parent="1">
          <mxGeometry x="320" y="-640" width="320" height="320" as="geometry" />
        </mxCell>
        <mxCell id="PZnoFgIiRui3hvkY3LLT-244" value="冶炼 铜锭&lt;div&gt;30-30&lt;/div&gt;" style="rounded=0;whiteSpace=wrap;html=1;fillColor=#f8cecc;strokeColor=#b85450;" vertex="1" parent="1">
          <mxGeometry x="342.5" y="-620" width="90" height="60" as="geometry" />
        </mxCell>
        <mxCell id="PZnoFgIiRui3hvkY3LLT-245" value="冶炼 铜锭&lt;div&gt;30-30&lt;/div&gt;" style="rounded=0;whiteSpace=wrap;html=1;fillColor=#f8cecc;strokeColor=#b85450;" vertex="1" parent="1">
          <mxGeometry x="342.5" y="-560" width="90" height="60" as="geometry" />
        </mxCell>
        <mxCell id="PZnoFgIiRui3hvkY3LLT-246" value="冶炼 铜锭&lt;div&gt;30-30&lt;/div&gt;" style="rounded=0;whiteSpace=wrap;html=1;fillColor=#f8cecc;strokeColor=#b85450;" vertex="1" parent="1">
          <mxGeometry x="342.5" y="-500" width="90" height="60" as="geometry" />
        </mxCell>
        <mxCell id="PZnoFgIiRui3hvkY3LLT-247" value="冶炼 铜锭&lt;div&gt;30-30&lt;/div&gt;" style="rounded=0;whiteSpace=wrap;html=1;fillColor=#f8cecc;strokeColor=#b85450;" vertex="1" parent="1">
          <mxGeometry x="342.5" y="-440" width="90" height="60" as="geometry" />
        </mxCell>
        <mxCell id="PZnoFgIiRui3hvkY3LLT-248" value="冶炼 铜锭&lt;div&gt;30-30&lt;/div&gt;" style="rounded=0;whiteSpace=wrap;html=1;fillColor=#f8cecc;strokeColor=#b85450;" vertex="1" parent="1">
          <mxGeometry x="500" y="-620" width="90" height="60" as="geometry" />
        </mxCell>
        <mxCell id="PZnoFgIiRui3hvkY3LLT-249" value="冶炼 铜锭&lt;div&gt;30-30&lt;/div&gt;" style="rounded=0;whiteSpace=wrap;html=1;fillColor=#f8cecc;strokeColor=#b85450;" vertex="1" parent="1">
          <mxGeometry x="500" y="-560" width="90" height="60" as="geometry" />
        </mxCell>
        <mxCell id="PZnoFgIiRui3hvkY3LLT-250" value="冶炼 铜锭&lt;div&gt;30-30&lt;/div&gt;" style="rounded=0;whiteSpace=wrap;html=1;fillColor=#f8cecc;strokeColor=#b85450;" vertex="1" parent="1">
          <mxGeometry x="500" y="-500" width="90" height="60" as="geometry" />
        </mxCell>
        <mxCell id="PZnoFgIiRui3hvkY3LLT-251" value="冶炼 铜锭&lt;div&gt;30-30&lt;/div&gt;" style="rounded=0;whiteSpace=wrap;html=1;fillColor=#f8cecc;strokeColor=#b85450;" vertex="1" parent="1">
          <mxGeometry x="500" y="-440" width="90" height="60" as="geometry" />
        </mxCell>
        <mxCell id="PZnoFgIiRui3hvkY3LLT-252" value="" style="rounded=1;whiteSpace=wrap;html=1;fillColor=none;" vertex="1" parent="1">
          <mxGeometry x="330" y="-940" width="280" height="180" as="geometry" />
        </mxCell>
        <mxCell id="PZnoFgIiRui3hvkY3LLT-253" value="" style="rounded=1;whiteSpace=wrap;html=1;fillColor=none;" vertex="1" parent="1">
          <mxGeometry x="332.5" y="-500" width="287.5" height="140" as="geometry" />
        </mxCell>
        <mxCell id="PZnoFgIiRui3hvkY3LLT-254" value="装配&amp;nbsp;" style="rounded=0;whiteSpace=wrap;html=1;fillColor=#dae8fc;strokeColor=#6c8ebf;" vertex="1" parent="1">
          <mxGeometry x="870" y="-300" width="150" height="100" as="geometry" />
        </mxCell>
        <mxCell id="PZnoFgIiRui3hvkY3LLT-255" value="构筑" style="rounded=0;whiteSpace=wrap;html=1;fillColor=#d5e8d4;strokeColor=#82b366;" vertex="1" parent="1">
          <mxGeometry x="-67.5" y="-930" width="100" height="80" as="geometry" />
        </mxCell>
        <mxCell id="PZnoFgIiRui3hvkY3LLT-256" value="构筑" style="rounded=0;whiteSpace=wrap;html=1;fillColor=#d5e8d4;strokeColor=#82b366;" vertex="1" parent="1">
          <mxGeometry x="-67.5" y="-840" width="100" height="80" as="geometry" />
        </mxCell>
        <mxCell id="PZnoFgIiRui3hvkY3LLT-257" value="构筑" style="rounded=0;whiteSpace=wrap;html=1;fillColor=#d5e8d4;strokeColor=#82b366;" vertex="1" parent="1">
          <mxGeometry x="-67.5" y="-750" width="100" height="80" as="geometry" />
        </mxCell>
        <mxCell id="PZnoFgIiRui3hvkY3LLT-260" value="构筑" style="rounded=0;whiteSpace=wrap;html=1;fillColor=#d5e8d4;strokeColor=#82b366;" vertex="1" parent="1">
          <mxGeometry x="72.5" y="-930" width="100" height="80" as="geometry" />
        </mxCell>
        <mxCell id="PZnoFgIiRui3hvkY3LLT-261" value="构筑" style="rounded=0;whiteSpace=wrap;html=1;fillColor=#d5e8d4;strokeColor=#82b366;" vertex="1" parent="1">
          <mxGeometry x="72.5" y="-840" width="100" height="80" as="geometry" />
        </mxCell>
        <mxCell id="PZnoFgIiRui3hvkY3LLT-262" value="构筑" style="rounded=0;whiteSpace=wrap;html=1;fillColor=#d5e8d4;strokeColor=#82b366;" vertex="1" parent="1">
          <mxGeometry x="72.5" y="-750" width="100" height="80" as="geometry" />
        </mxCell>
        <mxCell id="PZnoFgIiRui3hvkY3LLT-263" value="构筑" style="rounded=0;whiteSpace=wrap;html=1;fillColor=#d5e8d4;strokeColor=#82b366;" vertex="1" parent="1">
          <mxGeometry x="207.5" y="-930" width="100" height="80" as="geometry" />
        </mxCell>
        <mxCell id="PZnoFgIiRui3hvkY3LLT-264" value="构筑" style="rounded=0;whiteSpace=wrap;html=1;fillColor=#d5e8d4;strokeColor=#82b366;" vertex="1" parent="1">
          <mxGeometry x="207.5" y="-840" width="100" height="80" as="geometry" />
        </mxCell>
        <mxCell id="PZnoFgIiRui3hvkY3LLT-265" value="构筑" style="rounded=0;whiteSpace=wrap;html=1;fillColor=#d5e8d4;strokeColor=#82b366;" vertex="1" parent="1">
          <mxGeometry x="207.5" y="-750" width="100" height="80" as="geometry" />
        </mxCell>
        <mxCell id="PZnoFgIiRui3hvkY3LLT-266" value="构筑" style="rounded=0;whiteSpace=wrap;html=1;fillColor=#d5e8d4;strokeColor=#82b366;" vertex="1" parent="1">
          <mxGeometry x="70" y="-620" width="100" height="80" as="geometry" />
        </mxCell>
        <mxCell id="PZnoFgIiRui3hvkY3LLT-267" value="构筑" style="rounded=0;whiteSpace=wrap;html=1;fillColor=#d5e8d4;strokeColor=#82b366;" vertex="1" parent="1">
          <mxGeometry x="70" y="-530" width="100" height="80" as="geometry" />
        </mxCell>
        <mxCell id="PZnoFgIiRui3hvkY3LLT-268" value="构筑" style="rounded=0;whiteSpace=wrap;html=1;fillColor=#d5e8d4;strokeColor=#82b366;" vertex="1" parent="1">
          <mxGeometry x="70" y="-440" width="100" height="80" as="geometry" />
        </mxCell>
        <mxCell id="PZnoFgIiRui3hvkY3LLT-270" value="构筑" style="rounded=0;whiteSpace=wrap;html=1;fillColor=#d5e8d4;strokeColor=#82b366;" vertex="1" parent="1">
          <mxGeometry x="200" y="-620" width="100" height="80" as="geometry" />
        </mxCell>
        <mxCell id="PZnoFgIiRui3hvkY3LLT-271" value="构筑" style="rounded=0;whiteSpace=wrap;html=1;fillColor=#d5e8d4;strokeColor=#82b366;" vertex="1" parent="1">
          <mxGeometry x="200" y="-530" width="100" height="80" as="geometry" />
        </mxCell>
        <mxCell id="PZnoFgIiRui3hvkY3LLT-272" value="构筑" style="rounded=0;whiteSpace=wrap;html=1;fillColor=#d5e8d4;strokeColor=#82b366;" vertex="1" parent="1">
          <mxGeometry x="200" y="-440" width="100" height="80" as="geometry" />
        </mxCell>
        <mxCell id="PZnoFgIiRui3hvkY3LLT-274" value="构筑" style="rounded=0;whiteSpace=wrap;html=1;fillColor=#d5e8d4;strokeColor=#82b366;" vertex="1" parent="1">
          <mxGeometry x="-67.5" y="-620" width="100" height="80" as="geometry" />
        </mxCell>
        <mxCell id="PZnoFgIiRui3hvkY3LLT-275" value="构筑" style="rounded=0;whiteSpace=wrap;html=1;fillColor=#d5e8d4;strokeColor=#82b366;" vertex="1" parent="1">
          <mxGeometry x="-67.5" y="-530" width="100" height="80" as="geometry" />
        </mxCell>
        <mxCell id="PZnoFgIiRui3hvkY3LLT-286" value="构筑" style="rounded=0;whiteSpace=wrap;html=1;fillColor=#d5e8d4;strokeColor=#82b366;" vertex="1" parent="1">
          <mxGeometry x="-710" y="-810" width="100" height="80" as="geometry" />
        </mxCell>
        <mxCell id="PZnoFgIiRui3hvkY3LLT-287" value="构筑" style="rounded=0;whiteSpace=wrap;html=1;fillColor=#d5e8d4;strokeColor=#82b366;" vertex="1" parent="1">
          <mxGeometry x="-710" y="-720" width="100" height="80" as="geometry" />
        </mxCell>
        <mxCell id="PZnoFgIiRui3hvkY3LLT-288" value="构筑" style="rounded=0;whiteSpace=wrap;html=1;fillColor=#d5e8d4;strokeColor=#82b366;" vertex="1" parent="1">
          <mxGeometry x="-710" y="-630" width="100" height="80" as="geometry" />
        </mxCell>
        <mxCell id="PZnoFgIiRui3hvkY3LLT-289" value="构筑" style="rounded=0;whiteSpace=wrap;html=1;fillColor=#d5e8d4;strokeColor=#82b366;" vertex="1" parent="1">
          <mxGeometry x="-710" y="-540" width="100" height="80" as="geometry" />
        </mxCell>
        <mxCell id="PZnoFgIiRui3hvkY3LLT-290" value="构筑" style="rounded=0;whiteSpace=wrap;html=1;fillColor=#d5e8d4;strokeColor=#82b366;" vertex="1" parent="1">
          <mxGeometry x="-580" y="-810" width="100" height="80" as="geometry" />
        </mxCell>
        <mxCell id="PZnoFgIiRui3hvkY3LLT-291" value="构筑" style="rounded=0;whiteSpace=wrap;html=1;fillColor=#d5e8d4;strokeColor=#82b366;" vertex="1" parent="1">
          <mxGeometry x="-580" y="-720" width="100" height="80" as="geometry" />
        </mxCell>
        <mxCell id="PZnoFgIiRui3hvkY3LLT-292" value="构筑" style="rounded=0;whiteSpace=wrap;html=1;fillColor=#d5e8d4;strokeColor=#82b366;" vertex="1" parent="1">
          <mxGeometry x="-580" y="-630" width="100" height="80" as="geometry" />
        </mxCell>
        <mxCell id="PZnoFgIiRui3hvkY3LLT-293" value="构筑" style="rounded=0;whiteSpace=wrap;html=1;fillColor=#d5e8d4;strokeColor=#82b366;" vertex="1" parent="1">
          <mxGeometry x="-580" y="-540" width="100" height="80" as="geometry" />
        </mxCell>
        <mxCell id="PZnoFgIiRui3hvkY3LLT-294" value="" style="whiteSpace=wrap;html=1;aspect=fixed;glass=0;fillColor=none;" vertex="1" parent="1">
          <mxGeometry y="-960" width="320" height="320" as="geometry" />
        </mxCell>
        <mxCell id="PZnoFgIiRui3hvkY3LLT-295" value="" style="whiteSpace=wrap;html=1;aspect=fixed;glass=0;fillColor=none;" vertex="1" parent="1">
          <mxGeometry y="-640" width="320" height="320" as="geometry" />
        </mxCell>
        <mxCell id="PZnoFgIiRui3hvkY3LLT-296" value="" style="whiteSpace=wrap;html=1;aspect=fixed;glass=0;fillColor=none;" vertex="1" parent="1">
          <mxGeometry x="-440" y="-960" width="320" height="320" as="geometry" />
        </mxCell>
        <mxCell id="PZnoFgIiRui3hvkY3LLT-297" value="" style="whiteSpace=wrap;html=1;aspect=fixed;glass=0;fillColor=none;" vertex="1" parent="1">
          <mxGeometry x="-440" y="-640" width="320" height="320" as="geometry" />
        </mxCell>
        <mxCell id="PZnoFgIiRui3hvkY3LLT-298" value="" style="whiteSpace=wrap;html=1;aspect=fixed;glass=0;fillColor=none;" vertex="1" parent="1">
          <mxGeometry x="-760" y="-960" width="320" height="320" as="geometry" />
        </mxCell>
        <mxCell id="PZnoFgIiRui3hvkY3LLT-299" value="" style="whiteSpace=wrap;html=1;aspect=fixed;glass=0;fillColor=none;" vertex="1" parent="1">
          <mxGeometry x="-760" y="-640" width="320" height="320" as="geometry" />
        </mxCell>
        <mxCell id="PZnoFgIiRui3hvkY3LLT-300" value="构筑" style="rounded=0;whiteSpace=wrap;html=1;fillColor=#d5e8d4;strokeColor=#82b366;" vertex="1" parent="1">
          <mxGeometry x="-380" y="-940" width="100" height="80" as="geometry" />
        </mxCell>
        <mxCell id="PZnoFgIiRui3hvkY3LLT-301" value="构筑" style="rounded=0;whiteSpace=wrap;html=1;fillColor=#d5e8d4;strokeColor=#82b366;" vertex="1" parent="1">
          <mxGeometry x="-380" y="-850" width="100" height="80" as="geometry" />
        </mxCell>
        <mxCell id="PZnoFgIiRui3hvkY3LLT-302" value="构筑" style="rounded=0;whiteSpace=wrap;html=1;fillColor=#d5e8d4;strokeColor=#82b366;" vertex="1" parent="1">
          <mxGeometry x="-380" y="-760" width="100" height="80" as="geometry" />
        </mxCell>
        <mxCell id="PZnoFgIiRui3hvkY3LLT-303" value="构筑" style="rounded=0;whiteSpace=wrap;html=1;fillColor=#d5e8d4;strokeColor=#82b366;" vertex="1" parent="1">
          <mxGeometry x="-245" y="-940" width="100" height="80" as="geometry" />
        </mxCell>
        <mxCell id="PZnoFgIiRui3hvkY3LLT-304" value="构筑" style="rounded=0;whiteSpace=wrap;html=1;fillColor=#d5e8d4;strokeColor=#82b366;" vertex="1" parent="1">
          <mxGeometry x="-245" y="-850" width="100" height="80" as="geometry" />
        </mxCell>
        <mxCell id="PZnoFgIiRui3hvkY3LLT-305" value="构筑" style="rounded=0;whiteSpace=wrap;html=1;fillColor=#d5e8d4;strokeColor=#82b366;" vertex="1" parent="1">
          <mxGeometry x="-245" y="-760" width="100" height="80" as="geometry" />
        </mxCell>
        <mxCell id="PZnoFgIiRui3hvkY3LLT-306" value="构筑" style="rounded=0;whiteSpace=wrap;html=1;fillColor=#d5e8d4;strokeColor=#82b366;" vertex="1" parent="1">
          <mxGeometry x="-380" y="-630" width="100" height="80" as="geometry" />
        </mxCell>
        <mxCell id="PZnoFgIiRui3hvkY3LLT-307" value="构筑" style="rounded=0;whiteSpace=wrap;html=1;fillColor=#d5e8d4;strokeColor=#82b366;" vertex="1" parent="1">
          <mxGeometry x="-380" y="-540" width="100" height="80" as="geometry" />
        </mxCell>
        <mxCell id="PZnoFgIiRui3hvkY3LLT-308" value="构筑" style="rounded=0;whiteSpace=wrap;html=1;fillColor=#d5e8d4;strokeColor=#82b366;" vertex="1" parent="1">
          <mxGeometry x="-380" y="-450" width="100" height="80" as="geometry" />
        </mxCell>
        <mxCell id="PZnoFgIiRui3hvkY3LLT-309" value="构筑" style="rounded=0;whiteSpace=wrap;html=1;fillColor=#d5e8d4;strokeColor=#82b366;" vertex="1" parent="1">
          <mxGeometry x="-250" y="-630" width="100" height="80" as="geometry" />
        </mxCell>
        <mxCell id="PZnoFgIiRui3hvkY3LLT-310" value="构筑" style="rounded=0;whiteSpace=wrap;html=1;fillColor=#d5e8d4;strokeColor=#82b366;" vertex="1" parent="1">
          <mxGeometry x="-250" y="-540" width="100" height="80" as="geometry" />
        </mxCell>
        <mxCell id="PZnoFgIiRui3hvkY3LLT-311" value="构筑" style="rounded=0;whiteSpace=wrap;html=1;fillColor=#d5e8d4;strokeColor=#82b366;" vertex="1" parent="1">
          <mxGeometry x="-250" y="-450" width="100" height="80" as="geometry" />
        </mxCell>
      </root>
    </mxGraphModel>
  </diagram>
</mxfile>
